<svg width="52" height="38" viewBox="0 0 52 38" fill="none" xmlns="http://www.w3.org/2000/svg">
<g clip-path="url(#clip0_122_69)">
<path d="M47.4011 38H4.60564C2.06413 38 0 35.6885 0 32.8484V5.15162C0 2.31145 2.06413 0 4.60564 0H47.4011C49.9426 0 52.0067 2.31145 52.0067 5.15162V32.8416C52.0067 35.6818 49.9426 37.9932 47.4011 37.9932V38ZM4.60564 0.806636C2.46082 0.806636 0.719421 2.75883 0.719421 5.15162V32.8416C0.719421 35.2412 2.46082 37.1866 4.59891 37.1866H47.3944C49.5325 37.1866 51.2739 35.2344 51.2739 32.8416V5.15162C51.2739 2.75883 49.5325 0.806636 47.3944 0.806636H4.60564Z" fill="black"/>
<path d="M0.860698 13.4213H51.1395C51.6572 13.4213 51.6572 12.6079 51.1395 12.6079H0.860698C0.342984 12.6079 0.342984 13.4213 0.860698 13.4213Z" fill="black"/>
</g>
<defs>
<clipPath id="clip0_122_69">
<rect width="52" height="38" fill="white"/>
</clipPath>
</defs>
</svg>
