<svg width="39" height="41" viewBox="0 0 39 41" fill="none" xmlns="http://www.w3.org/2000/svg">
<g clip-path="url(#clip0_122_72)">
<path d="M28.2829 9.50029C28.2482 13.1519 25.9818 16.5146 22.545 17.78C19.1082 19.0454 15.1159 17.9843 12.7504 15.1446C10.3897 12.31 10.0723 8.15023 11.9618 4.98182C13.8513 1.81341 17.6452 0.104666 21.2705 0.856914C25.3321 1.70382 28.2432 5.35546 28.2829 9.50029C28.2829 9.94367 28.9723 9.94367 28.9673 9.50029C28.9326 5.52484 26.4529 1.928 22.7235 0.558007C18.9941 -0.81198 14.7192 0.378664 12.2148 3.43249C9.68055 6.52119 9.3334 11.0048 11.4113 14.4322C13.4893 17.8597 17.4369 19.5585 21.2853 18.8312C25.7189 17.9942 28.9227 13.9889 28.9623 9.49531C28.9623 9.05193 28.2829 9.05193 28.278 9.49531L28.2829 9.50029Z" fill="black"/>
<path d="M38.6579 40.3126H0.342247L0.684439 40.6563C0.684439 38.9575 1.13078 37.2039 1.69614 35.6197C2.99548 31.998 5.5148 28.9641 8.87226 27.0959C11.3321 25.7259 14.1093 24.9936 16.8964 24.6897C20.0803 24.341 23.3832 24.4108 26.4728 25.3125C30.842 26.5878 34.3135 29.6167 36.327 33.6918C37.3932 35.8439 38.0132 38.2003 38.3008 40.5368C38.3008 40.5766 38.3057 40.6165 38.3107 40.6563C38.3355 41.0947 39.0199 41.0997 38.9951 40.6563C38.8761 38.549 38.2462 36.4069 37.4379 34.4789C35.7269 30.4138 32.6769 27.076 28.6004 25.3423C25.719 24.1218 22.5748 23.7482 19.4703 23.8279C16.3658 23.9076 13.2513 24.4008 10.3848 25.6064C6.47691 27.2454 3.31783 30.2245 1.57711 34.1103C0.986957 35.4304 0.545578 36.8203 0.282735 38.2451C0.143874 38.9775 -0.024742 39.7945 0.00997315 40.5417C0.00997315 40.5766 0.00997315 40.6165 0.00997315 40.6513C0.00997315 40.8357 0.168671 40.9951 0.352165 40.9951H38.6628C39.1042 40.9951 39.1042 40.3076 38.6628 40.3076L38.6579 40.3126Z" fill="black"/>
</g>
<defs>
<clipPath id="clip0_122_72">
<rect width="39" height="41" fill="white"/>
</clipPath>
</defs>
</svg>
