<svg width="51" height="40" viewBox="0 0 51 40" fill="none" xmlns="http://www.w3.org/2000/svg">
<g clip-path="url(#clip0_122_64)">
<path d="M0 0.338281V33.3241C0 33.5036 0.147013 33.6624 0.327437 33.6624H4.00943L3.682 33.3241C3.74882 36.9555 6.57547 40.0069 10.1439 40C13.7123 39.9931 16.5456 36.9624 16.6057 33.3241L16.2783 33.6624H27.331C27.5047 33.6624 27.6584 33.5105 27.6584 33.3241V0.338281C27.6584 0.158785 27.5114 0 27.331 0H0.327437C-0.0935535 0 -0.0935535 0.669658 0.327437 0.669658H27.3443L27.0169 0.331377V33.3172L27.3443 32.9789H16.2917C16.1112 32.9789 15.9709 33.1308 15.9642 33.3172C15.9041 36.5896 13.3648 39.3234 10.1506 39.3234C6.93632 39.3234 4.39033 36.5896 4.33687 33.3172C4.33687 33.1377 4.18986 32.9789 4.00943 32.9789H0.327437L0.654874 33.3172V0.338281C0.648192 -0.0966517 0 -0.0966517 0 0.338281Z" fill="black"/>
<path d="M50.6792 13.9592C49.59 13.9454 48.4339 13.4829 47.3981 13.1791C45.4669 12.6061 43.5558 11.9779 41.6513 11.3427C37.702 10.0172 33.7727 8.62957 29.8502 7.22121C28.9815 6.91055 28.1061 6.59298 27.2374 6.27541C27.0369 6.19947 26.8231 6.39277 26.8297 6.59988C26.8899 14.0283 26.9433 21.4566 27.0035 28.8919C27.0102 29.9482 27.0168 31.0044 27.0302 32.0676C27.0302 32.2471 27.1772 32.4059 27.3576 32.4059H33.6191L33.305 31.9848C32.6033 36.0787 35.5102 40.0207 39.6332 40.0207C43.7562 40.0207 46.6698 36.0787 45.9614 31.9848L45.6474 32.4059H50.6859C50.8596 32.4059 51.0133 32.254 51.0133 32.0676V14.3044C51.0133 13.8764 50.3651 13.8695 50.3651 14.3044V32.0676L50.6926 31.7293H45.654C45.4268 31.7293 45.3065 31.9433 45.34 32.1505C45.9748 35.8232 43.3085 39.3303 39.6332 39.3372C35.9579 39.3441 33.2983 35.8163 33.9264 32.1505C33.9599 31.9364 33.8396 31.7293 33.6124 31.7293H27.351L27.6784 32.0676C27.6183 24.6392 27.5648 17.2109 27.5047 9.77558C27.498 8.71932 27.4913 7.66305 27.4779 6.59988L27.0703 6.92436C33.599 9.30613 40.1477 11.6948 46.79 13.6969C48.0196 14.0697 49.3895 14.6151 50.6859 14.6358C51.1069 14.6358 51.1069 13.973 50.6859 13.9661L50.6792 13.9592Z" fill="black"/>
<path d="M15.9642 33.3241C15.9308 35.8371 14.4205 38.1291 12.1084 38.9851C9.79633 39.8412 7.20356 39.0818 5.65325 37.1488C4.10293 35.2157 3.90246 32.399 5.14538 30.2451C6.38831 28.0911 8.85411 26.952 11.233 27.4215C13.9728 27.9668 15.9241 30.466 15.9575 33.3241C15.9575 33.7521 16.6124 33.759 16.6057 33.3241C16.5723 30.5626 14.9351 28.0704 12.4292 27.0763C9.92329 26.0821 6.87612 26.9037 5.14538 29.0921C3.41465 31.2806 3.20749 34.3528 4.59075 36.7414C5.974 39.1301 8.68705 40.3797 11.3266 39.8895C14.3804 39.3234 16.5656 36.4929 16.6124 33.3241C16.6124 32.8892 15.9709 32.8892 15.9642 33.3241Z" fill="black"/>
<path d="M45.4402 33.3241C45.4068 35.8371 43.8966 38.1291 41.5845 38.9851C39.2724 39.8412 36.6796 39.0818 35.1293 37.1488C33.579 35.2157 33.3785 32.399 34.6215 30.2451C35.8644 28.0911 38.3302 26.952 40.7091 27.4215C43.4489 27.9668 45.4002 30.466 45.4336 33.3241C45.4336 33.7521 46.0884 33.759 46.0818 33.3241C46.0483 30.5626 44.4112 28.0704 41.9053 27.0763C39.3994 26.0821 36.3522 26.9037 34.6215 29.0921C32.8907 31.2806 32.6836 34.3528 34.0668 36.7414C35.4501 39.1301 38.1631 40.3797 40.8027 39.8895C43.8565 39.3234 46.0417 36.4929 46.0884 33.3241C46.0884 32.8892 45.4469 32.8892 45.4402 33.3241Z" fill="black"/>
</g>
<defs>
<clipPath id="clip0_122_64">
<rect width="51" height="40" fill="white"/>
</clipPath>
</defs>
</svg>
