<svg width="42" height="43" viewBox="0 0 42 43" fill="none" xmlns="http://www.w3.org/2000/svg">
<g clip-path="url(#clip0_122_59)">
<path d="M38.8254 42.1607H3.99267C3.55085 42.1607 3.05994 42.1928 2.62903 42.0859C1.36903 41.7812 1.13994 40.8778 1.13994 40.0011V27.7757C1.13994 24.3385 0.845398 20.8104 1.13994 17.3785C1.30358 15.4969 3.40358 15.6733 5.07267 15.6733H37.1345C38.7981 15.6733 40.7836 15.5503 40.9308 17.4106C41.2036 20.912 40.9308 24.4935 40.9308 28.0002C40.9308 32.0201 41.029 36.0454 40.9308 40.0653C40.9036 41.1183 40.3745 42.0645 38.8254 42.1554C38.149 42.1928 38.1436 43.0374 38.8254 43C40.6254 42.8931 41.8854 41.9202 41.989 40.4715C42.0108 40.1294 41.989 39.7766 41.989 39.4345V18.8432C41.989 17.3732 42.1199 15.7588 40.0745 15.0425C38.9127 14.6362 37.2545 14.834 36.0272 14.834H17.7545C13.0036 14.834 8.24176 14.7538 3.49085 14.834C1.36358 14.8714 0.109034 16.0261 0.0817613 17.6725C0.0544886 19.3243 0.0817613 20.9708 0.0817613 22.6226V37.6865C0.0817613 38.7983 -0.20733 40.263 0.278125 41.3428C1.01449 42.9733 2.95085 43.0053 4.7454 43.0053H38.8199C39.5018 43.0053 39.5018 42.1607 38.8199 42.1607H38.8254Z" fill="black"/>
<path d="M13.4617 14.7804V9.76084C13.4617 7.32325 13.7181 4.9498 15.4908 3.05211C17.8963 0.48088 22.4945 0.144107 25.4236 2.06318C27.829 3.64013 28.5381 6.4038 28.5381 9.07126V14.775C28.5381 15.3149 29.3999 15.3203 29.3999 14.775V9.17817C29.3999 6.41984 28.7508 3.64013 26.4817 1.79055C23.7817 -0.40649 19.1781 -0.614968 16.2654 1.29876C13.7563 2.9452 12.6163 5.81044 12.6108 8.68103C12.6108 10.7124 12.6108 12.7437 12.6108 14.775C12.6108 15.3149 13.4727 15.3203 13.4727 14.775L13.4617 14.7804Z" fill="black"/>
<path d="M22.8382 26.7654C22.8273 27.5084 22.3582 28.2034 21.6382 28.46C20.9182 28.7166 20.0618 28.4974 19.5654 27.8987C19.0691 27.3 19.0309 26.4821 19.4236 25.8406C19.8163 25.1992 20.5854 24.857 21.3273 24.9907C22.2054 25.151 22.8273 25.8994 22.8436 26.7654C22.8491 27.2144 23.5582 27.2144 23.5527 26.7654C23.5363 25.7177 22.8818 24.7929 21.8836 24.4187C20.8854 24.0445 19.7127 24.3599 19.0473 25.1617C18.3818 25.9636 18.2563 27.1343 18.8127 28.043C19.3691 28.9518 20.4436 29.4061 21.4909 29.219C22.6854 29.0106 23.5418 27.9361 23.5582 26.7654C23.5636 26.3164 22.8545 26.3164 22.8491 26.7654H22.8382Z" fill="black"/>
<path d="M20.5691 28.8448C20.5691 30.983 20.5691 33.1213 20.5691 35.2595V36.1683C20.5691 36.7082 21.4309 36.7135 21.4309 36.1683C21.4309 34.03 21.4309 31.8918 21.4309 29.7536V28.8448C21.4309 28.3049 20.5691 28.2996 20.5691 28.8448Z" fill="black"/>
</g>
<defs>
<clipPath id="clip0_122_59">
<rect width="42" height="43" fill="white"/>
</clipPath>
</defs>
</svg>
