<svg width="389" height="507" viewBox="0 0 389 507" fill="none" xmlns="http://www.w3.org/2000/svg">
<rect width="389" height="507" fill="#FF8CED"/>
<path d="M44.2656 370C51.199 347.6 58.1323 324.933 65.0656 302C72.1323 279.067 79.1323 256.4 86.0656 234C93.9323 234 101.866 234 109.866 234C117.999 234 125.999 234 133.866 234C140.799 256.4 147.732 279.067 154.666 302C161.732 324.933 168.732 347.6 175.666 370C169.932 370 164.066 370 158.066 370C152.199 370 146.332 370 140.466 370C139.132 365.733 137.866 361.467 136.666 357.2C135.466 352.8 134.199 348.467 132.866 344.2C125.266 344.2 117.599 344.2 109.866 344.2C102.266 344.2 94.6656 344.2 87.0656 344.2C85.7323 348.467 84.4656 352.8 83.2656 357.2C82.0656 361.467 80.799 365.733 79.4656 370C73.7323 370 67.8656 370 61.8656 370C55.999 370 50.1323 370 44.2656 370ZM95.8656 314.4C100.532 314.4 105.199 314.4 109.866 314.4C114.666 314.4 119.399 314.4 124.066 314.4C121.799 306.533 119.466 298.6 117.066 290.6C114.666 282.6 112.332 274.667 110.066 266.8C107.799 274.667 105.399 282.6 102.866 290.6C100.466 298.6 98.1323 306.533 95.8656 314.4ZM255.711 370C255.711 368.933 255.711 367.933 255.711 367C255.711 365.933 255.711 364.933 255.711 364C252.378 366.8 248.578 368.933 244.311 370.4C240.178 372 235.711 372.8 230.911 372.8C224.111 372.8 217.711 371.533 211.711 369C205.711 366.333 200.378 362.6 195.711 357.8C191.178 352.867 187.578 347.067 184.911 340.4C182.378 333.733 181.111 326.333 181.111 318.2C181.111 309.933 182.378 302.467 184.911 295.8C187.578 289.133 191.178 283.467 195.711 278.8C200.378 274 205.711 270.333 211.711 267.8C217.711 265.133 224.044 263.8 230.711 263.8C235.511 263.8 240.044 264.6 244.311 266.2C248.578 267.667 252.378 269.733 255.711 272.4C255.711 271.333 255.711 270.333 255.711 269.4C255.711 268.467 255.711 267.533 255.711 266.6C261.178 266.6 266.711 266.6 272.311 266.6C277.911 266.6 283.378 266.6 288.711 266.6C288.711 283.667 288.711 300.933 288.711 318.4C288.711 335.733 288.711 352.933 288.711 370C283.378 370 277.911 370 272.311 370C266.711 370 261.178 370 255.711 370ZM235.311 343.6C241.711 343.6 246.844 341.267 250.711 336.6C254.578 331.933 256.511 325.8 256.511 318.2C256.511 310.6 254.578 304.533 250.711 300C246.844 295.333 241.711 293 235.311 293C228.778 293 223.578 295.267 219.711 299.8C215.978 304.333 214.111 310.467 214.111 318.2C214.111 325.933 215.978 332.133 219.711 336.8C223.578 341.333 228.778 343.6 235.311 343.6Z" fill="white"/>
<path d="M49.188 416C49.188 413.42 49.188 410.82 49.188 408.2C49.188 405.56 49.188 402.95 49.188 400.37C48.428 400.37 47.658 400.37 46.878 400.37C46.098 400.37 45.328 400.37 44.568 400.37C44.568 399.59 44.568 398.8 44.568 398C44.568 397.18 44.568 396.38 44.568 395.6C46.948 395.6 49.358 395.6 51.798 395.6C54.238 395.6 56.648 395.6 59.028 395.6C59.028 396.38 59.028 397.18 59.028 398C59.028 398.8 59.028 399.59 59.028 400.37C58.288 400.37 57.528 400.37 56.748 400.37C55.968 400.37 55.198 400.37 54.438 400.37C54.438 402.95 54.438 405.56 54.438 408.2C54.438 410.82 54.438 413.42 54.438 416C53.578 416 52.708 416 51.828 416C50.948 416 50.068 416 49.188 416ZM63.9248 398.72C63.3448 398.72 62.8148 398.58 62.3348 398.3C61.8748 398.02 61.5048 397.65 61.2248 397.19C60.9448 396.73 60.8048 396.22 60.8048 395.66C60.8048 395.1 60.9448 394.6 61.2248 394.16C61.5048 393.7 61.8748 393.33 62.3348 393.05C62.8148 392.77 63.3448 392.63 63.9248 392.63C64.4848 392.63 64.9948 392.77 65.4548 393.05C65.9348 393.33 66.3148 393.7 66.5948 394.16C66.8748 394.6 67.0148 395.1 67.0148 395.66C67.0148 396.22 66.8748 396.73 66.5948 397.19C66.3148 397.65 65.9348 398.02 65.4548 398.3C64.9948 398.58 64.4848 398.72 63.9248 398.72ZM61.4348 416C61.4348 413.44 61.4348 410.86 61.4348 408.26C61.4348 405.64 61.4348 403.05 61.4348 400.49C62.2548 400.49 63.0848 400.49 63.9248 400.49C64.7648 400.49 65.5848 400.49 66.3848 400.49C66.3848 403.05 66.3848 405.64 66.3848 408.26C66.3848 410.86 66.3848 413.44 66.3848 416C65.5848 416 64.7648 416 63.9248 416C63.0848 416 62.2548 416 61.4348 416ZM69.9895 416C69.9895 412.38 69.9895 408.73 69.9895 405.05C69.9895 401.37 69.9895 397.72 69.9895 394.1C70.8095 394.1 71.6395 394.1 72.4795 394.1C73.3195 394.1 74.1395 394.1 74.9395 394.1C74.9395 397.72 74.9395 401.37 74.9395 405.05C74.9395 408.73 74.9395 412.38 74.9395 416C74.1395 416 73.3195 416 72.4795 416C71.6395 416 70.8095 416 69.9895 416ZM80.0141 416C80.0141 414.16 80.0141 412.31 80.0141 410.45C80.0141 408.59 80.0141 406.75 80.0141 404.93C79.6141 404.93 79.2041 404.93 78.7841 404.93C78.3841 404.93 77.9841 404.93 77.5841 404.93C77.5841 404.19 77.5841 403.45 77.5841 402.71C77.5841 401.97 77.5841 401.23 77.5841 400.49C77.9841 400.49 78.3841 400.49 78.7841 400.49C79.2041 400.49 79.6141 400.49 80.0141 400.49C80.0141 399.79 80.0141 399.1 80.0141 398.42C80.0141 397.72 80.0141 397.03 80.0141 396.35C80.8341 396.35 81.6641 396.35 82.5041 396.35C83.3441 396.35 84.1641 396.35 84.9641 396.35C84.9641 397.03 84.9641 397.72 84.9641 398.42C84.9641 399.1 84.9641 399.79 84.9641 400.49C85.4241 400.49 85.8941 400.49 86.3741 400.49C86.8541 400.49 87.3241 400.49 87.7841 400.49C87.7841 401.23 87.7841 401.97 87.7841 402.71C87.7841 403.45 87.7841 404.19 87.7841 404.93C87.3241 404.93 86.8541 404.93 86.3741 404.93C85.8941 404.93 85.4241 404.93 84.9641 404.93C84.9641 406.75 84.9641 408.59 84.9641 410.45C84.9641 412.31 84.9641 414.16 84.9641 416C84.1641 416 83.3441 416 82.5041 416C81.6641 416 80.8341 416 80.0141 416ZM100.46 395.6C100.92 397.66 101.38 399.75 101.84 401.87C102.3 403.99 102.75 406.09 103.19 408.17C103.65 406.09 104.11 403.99 104.57 401.87C105.05 399.75 105.51 397.66 105.95 395.6C106.73 395.6 107.52 395.6 108.32 395.6C109.12 395.6 109.91 395.6 110.69 395.6C111.17 397.66 111.65 399.74 112.13 401.84C112.61 403.94 113.09 406.03 113.57 408.11C114.03 406.03 114.48 403.94 114.92 401.84C115.38 399.74 115.83 397.66 116.27 395.6C117.07 395.6 117.87 395.6 118.67 395.6C119.49 395.6 120.3 395.6 121.1 395.6C120.36 398.96 119.62 402.36 118.88 405.8C118.14 409.24 117.4 412.64 116.66 416C115.68 416 114.68 416 113.66 416C112.66 416 111.66 416 110.66 416C110.24 414.14 109.81 412.27 109.37 410.39C108.93 408.49 108.5 406.61 108.08 404.75C107.68 406.61 107.27 408.49 106.85 410.39C106.43 412.27 106.02 414.14 105.62 416C104.64 416 103.65 416 102.65 416C101.67 416 100.69 416 99.7103 416C98.9703 412.64 98.2303 409.24 97.4903 405.8C96.7503 402.36 96.0103 398.96 95.2703 395.6C96.1303 395.6 96.9903 395.6 97.8503 395.6C98.7303 395.6 99.6003 395.6 100.46 395.6ZM132.631 416C132.631 415.84 132.631 415.69 132.631 415.55C132.631 415.39 132.631 415.24 132.631 415.1C132.131 415.52 131.561 415.84 130.921 416.06C130.301 416.3 129.631 416.42 128.911 416.42C127.891 416.42 126.931 416.23 126.031 415.85C125.131 415.45 124.331 414.89 123.631 414.17C122.951 413.43 122.411 412.56 122.011 411.56C121.631 410.56 121.441 409.45 121.441 408.23C121.441 406.99 121.631 405.87 122.011 404.87C122.411 403.87 122.951 403.02 123.631 402.32C124.331 401.6 125.131 401.05 126.031 400.67C126.931 400.27 127.881 400.07 128.881 400.07C129.601 400.07 130.281 400.19 130.921 400.43C131.561 400.65 132.131 400.96 132.631 401.36C132.631 401.2 132.631 401.05 132.631 400.91C132.631 400.77 132.631 400.63 132.631 400.49C133.451 400.49 134.281 400.49 135.121 400.49C135.961 400.49 136.781 400.49 137.581 400.49C137.581 403.05 137.581 405.64 137.581 408.26C137.581 410.86 137.581 413.44 137.581 416C136.781 416 135.961 416 135.121 416C134.281 416 133.451 416 132.631 416ZM129.571 412.04C130.531 412.04 131.301 411.69 131.881 410.99C132.461 410.29 132.751 409.37 132.751 408.23C132.751 407.09 132.461 406.18 131.881 405.5C131.301 404.8 130.531 404.45 129.571 404.45C128.591 404.45 127.811 404.79 127.231 405.47C126.671 406.15 126.391 407.07 126.391 408.23C126.391 409.39 126.671 410.32 127.231 411.02C127.811 411.7 128.591 412.04 129.571 412.04ZM140.884 416C140.884 413.44 140.884 410.86 140.884 408.26C140.884 405.64 140.884 403.05 140.884 400.49C141.704 400.49 142.534 400.49 143.374 400.49C144.214 400.49 145.034 400.49 145.834 400.49C145.834 400.63 145.834 400.77 145.834 400.91C145.834 401.05 145.834 401.19 145.834 401.33C146.454 400.89 147.154 400.56 147.934 400.34C148.714 400.12 149.564 400.06 150.484 400.16C150.484 400.96 150.484 401.77 150.484 402.59C150.484 403.41 150.484 404.22 150.484 405.02C148.904 404.8 147.734 404.94 146.974 405.44C146.214 405.92 145.834 406.71 145.834 407.81C145.834 409.15 145.834 410.51 145.834 411.89C145.834 413.27 145.834 414.64 145.834 416C145.034 416 144.214 416 143.374 416C142.534 416 141.704 416 140.884 416ZM157.67 420.8C156.87 420.8 156.05 420.8 155.21 420.8C154.37 420.8 153.54 420.8 152.72 420.8C152.72 417.46 152.72 414.08 152.72 410.66C152.72 407.22 152.72 403.83 152.72 400.49C153.54 400.49 154.37 400.49 155.21 400.49C156.05 400.49 156.87 400.49 157.67 400.49C157.67 400.63 157.67 400.77 157.67 400.91C157.67 401.05 157.67 401.2 157.67 401.36C158.17 400.96 158.74 400.65 159.38 400.43C160.02 400.19 160.7 400.07 161.42 400.07C162.42 400.07 163.37 400.27 164.27 400.67C165.17 401.05 165.96 401.6 166.64 402.32C167.34 403.04 167.88 403.9 168.26 404.9C168.66 405.9 168.86 407.01 168.86 408.23C168.86 409.43 168.66 410.53 168.26 411.53C167.88 412.53 167.34 413.4 166.64 414.14C165.96 414.86 165.17 415.42 164.27 415.82C163.37 416.22 162.41 416.42 161.39 416.42C160.67 416.42 159.99 416.3 159.35 416.06C158.73 415.84 158.17 415.52 157.67 415.1C157.67 416.04 157.67 416.99 157.67 417.95C157.67 418.91 157.67 419.86 157.67 420.8ZM160.73 412.04C161.71 412.04 162.48 411.7 163.04 411.02C163.62 410.32 163.91 409.39 163.91 408.23C163.91 407.07 163.62 406.15 163.04 405.47C162.48 404.79 161.71 404.45 160.73 404.45C159.77 404.45 159 404.8 158.42 405.5C157.84 406.18 157.55 407.09 157.55 408.23C157.55 409.37 157.84 410.29 158.42 410.99C159 411.69 159.77 412.04 160.73 412.04ZM177.623 416C177.623 413.44 177.623 410.86 177.623 408.26C177.623 405.64 177.623 403.05 177.623 400.49C178.443 400.49 179.273 400.49 180.113 400.49C180.953 400.49 181.773 400.49 182.573 400.49C182.573 400.63 182.573 400.77 182.573 400.91C182.573 401.05 182.573 401.19 182.573 401.33C183.193 400.89 183.893 400.56 184.673 400.34C185.453 400.12 186.303 400.06 187.223 400.16C187.223 400.96 187.223 401.77 187.223 402.59C187.223 403.41 187.223 404.22 187.223 405.02C185.643 404.8 184.473 404.94 183.713 405.44C182.953 405.92 182.573 406.71 182.573 407.81C182.573 409.15 182.573 410.51 182.573 411.89C182.573 413.27 182.573 414.64 182.573 416C181.773 416 180.953 416 180.113 416C179.273 416 178.443 416 177.623 416ZM202.662 415.28C201.282 415.86 199.912 416.22 198.552 416.36C197.192 416.5 195.902 416.42 194.682 416.12C193.482 415.84 192.412 415.35 191.472 414.65C190.532 413.95 189.792 413.06 189.252 411.98C188.732 410.9 188.472 409.65 188.472 408.23C188.472 407.05 188.662 405.97 189.042 404.99C189.442 403.99 190.002 403.12 190.722 402.38C191.442 401.62 192.292 401.04 193.272 400.64C194.252 400.22 195.322 400.01 196.482 400.01C197.522 400.01 198.462 400.18 199.302 400.52C200.142 400.86 200.872 401.34 201.492 401.96C202.112 402.56 202.612 403.28 202.992 404.12C203.372 404.96 203.612 405.88 203.712 406.88C203.812 407.88 203.752 408.94 203.532 410.06C201.892 410.06 200.242 410.06 198.582 410.06C196.922 410.06 195.272 410.06 193.632 410.06C194.012 410.82 194.642 411.36 195.522 411.68C196.422 412 197.482 412.1 198.702 411.98C199.942 411.86 201.262 411.54 202.662 411.02C202.662 411.72 202.662 412.43 202.662 413.15C202.662 413.87 202.662 414.58 202.662 415.28ZM196.362 404.45C195.782 404.45 195.242 404.61 194.742 404.93C194.262 405.25 193.892 405.74 193.632 406.4C194.532 406.4 195.432 406.4 196.332 406.4C197.252 406.4 198.162 406.4 199.062 406.4C198.822 405.72 198.462 405.23 197.982 404.93C197.522 404.61 196.982 404.45 196.362 404.45ZM220.914 413.48C220.914 415.18 220.544 416.6 219.804 417.74C219.084 418.88 218.094 419.73 216.834 420.29C215.574 420.87 214.134 421.17 212.514 421.19C210.914 421.21 209.224 420.97 207.444 420.47C207.444 419.69 207.444 418.9 207.444 418.1C207.444 417.32 207.444 416.54 207.444 415.76C209.024 416.38 210.454 416.69 211.734 416.69C213.014 416.71 214.024 416.47 214.764 415.97C215.524 415.45 215.904 414.74 215.904 413.84C215.904 413.74 215.904 413.65 215.904 413.57C215.904 413.47 215.904 413.38 215.904 413.3C215.404 413.68 214.824 413.98 214.164 414.2C213.504 414.42 212.794 414.53 212.034 414.53C210.774 414.53 209.644 414.24 208.644 413.66C207.664 413.06 206.894 412.24 206.334 411.2C205.774 410.14 205.494 408.91 205.494 407.51C205.494 406.43 205.674 405.44 206.034 404.54C206.394 403.64 206.894 402.86 207.534 402.2C208.174 401.54 208.904 401.04 209.724 400.7C210.544 400.34 211.404 400.16 212.304 400.16C213.024 400.16 213.694 400.26 214.314 400.46C214.934 400.66 215.484 400.93 215.964 401.27C215.964 401.13 215.964 401 215.964 400.88C215.964 400.76 215.964 400.63 215.964 400.49C216.784 400.49 217.614 400.49 218.454 400.49C219.294 400.49 220.114 400.49 220.914 400.49C220.914 402.63 220.914 404.8 220.914 407C220.914 409.18 220.914 411.34 220.914 413.48ZM213.264 410.24C214.104 410.24 214.774 409.98 215.274 409.46C215.794 408.92 216.054 408.23 216.054 407.39C216.054 406.53 215.794 405.83 215.274 405.29C214.774 404.75 214.104 404.48 213.264 404.48C212.384 404.48 211.684 404.75 211.164 405.29C210.644 405.81 210.384 406.51 210.384 407.39C210.384 408.25 210.644 408.94 211.164 409.46C211.684 409.98 212.384 410.24 213.264 410.24ZM238.695 400.49C238.695 403.05 238.695 405.64 238.695 408.26C238.695 410.86 238.695 413.44 238.695 416C237.895 416 237.075 416 236.235 416C235.395 416 234.565 416 233.745 416C233.745 415.86 233.745 415.73 233.745 415.61C233.745 415.49 233.745 415.36 233.745 415.22C233.205 415.6 232.595 415.89 231.915 416.09C231.255 416.31 230.535 416.42 229.755 416.42C228.615 416.42 227.605 416.16 226.725 415.64C225.865 415.12 225.185 414.37 224.685 413.39C224.205 412.41 223.965 411.25 223.965 409.91C223.965 408.35 223.965 406.78 223.965 405.2C223.965 403.62 223.965 402.05 223.965 400.49C224.785 400.49 225.615 400.49 226.455 400.49C227.295 400.49 228.115 400.49 228.915 400.49C228.915 401.93 228.915 403.39 228.915 404.87C228.915 406.35 228.915 407.81 228.915 409.25C228.915 410.05 229.095 410.7 229.455 411.2C229.835 411.68 230.425 411.92 231.225 411.92C232.025 411.92 232.645 411.69 233.085 411.23C233.525 410.77 233.745 410.11 233.745 409.25C233.745 407.81 233.745 406.35 233.745 404.87C233.745 403.39 233.745 401.93 233.745 400.49C234.565 400.49 235.395 400.49 236.235 400.49C237.075 400.49 237.895 400.49 238.695 400.49ZM242.138 416C242.138 412.38 242.138 408.73 242.138 405.05C242.138 401.37 242.138 397.72 242.138 394.1C242.958 394.1 243.788 394.1 244.628 394.1C245.468 394.1 246.288 394.1 247.088 394.1C247.088 397.72 247.088 401.37 247.088 405.05C247.088 408.73 247.088 412.38 247.088 416C246.288 416 245.468 416 244.628 416C243.788 416 242.958 416 242.138 416ZM260.893 416C260.893 415.84 260.893 415.69 260.893 415.55C260.893 415.39 260.893 415.24 260.893 415.1C260.393 415.52 259.823 415.84 259.183 416.06C258.563 416.3 257.893 416.42 257.173 416.42C256.153 416.42 255.193 416.23 254.293 415.85C253.393 415.45 252.593 414.89 251.893 414.17C251.213 413.43 250.673 412.56 250.273 411.56C249.893 410.56 249.703 409.45 249.703 408.23C249.703 406.99 249.893 405.87 250.273 404.87C250.673 403.87 251.213 403.02 251.893 402.32C252.593 401.6 253.393 401.05 254.293 400.67C255.193 400.27 256.143 400.07 257.143 400.07C257.863 400.07 258.543 400.19 259.183 400.43C259.823 400.65 260.393 400.96 260.893 401.36C260.893 401.2 260.893 401.05 260.893 400.91C260.893 400.77 260.893 400.63 260.893 400.49C261.713 400.49 262.543 400.49 263.383 400.49C264.223 400.49 265.043 400.49 265.843 400.49C265.843 403.05 265.843 405.64 265.843 408.26C265.843 410.86 265.843 413.44 265.843 416C265.043 416 264.223 416 263.383 416C262.543 416 261.713 416 260.893 416ZM257.833 412.04C258.793 412.04 259.563 411.69 260.143 410.99C260.723 410.29 261.013 409.37 261.013 408.23C261.013 407.09 260.723 406.18 260.143 405.5C259.563 404.8 258.793 404.45 257.833 404.45C256.853 404.45 256.073 404.79 255.493 405.47C254.933 406.15 254.653 407.07 254.653 408.23C254.653 409.39 254.933 410.32 255.493 411.02C256.073 411.7 256.853 412.04 257.833 412.04ZM269.146 416C269.146 413.44 269.146 410.86 269.146 408.26C269.146 405.64 269.146 403.05 269.146 400.49C269.966 400.49 270.796 400.49 271.636 400.49C272.476 400.49 273.296 400.49 274.096 400.49C274.096 400.63 274.096 400.77 274.096 400.91C274.096 401.05 274.096 401.19 274.096 401.33C274.716 400.89 275.416 400.56 276.196 400.34C276.976 400.12 277.826 400.06 278.746 400.16C278.746 400.96 278.746 401.77 278.746 402.59C278.746 403.41 278.746 404.22 278.746 405.02C277.166 404.8 275.996 404.94 275.236 405.44C274.476 405.92 274.096 406.71 274.096 407.81C274.096 409.15 274.096 410.51 274.096 411.89C274.096 413.27 274.096 414.64 274.096 416C273.296 416 272.476 416 271.636 416C270.796 416 269.966 416 269.146 416Z" fill="white"/>
</svg>
