<svg width="60" height="96" viewBox="0 0 60 96" fill="none" xmlns="http://www.w3.org/2000/svg">
<path d="M39.2576 50.2676C41.2297 49.5376 43.048 48.8219 44.6984 48.1062C46.3628 47.3905 47.8034 46.7034 49.0482 46.045H49.0063C50.4469 45.2721 51.0203 44.0983 50.7266 42.5238C50.6427 42.0514 50.4748 41.6077 50.2371 41.2069C49.9993 40.8061 49.7056 40.4626 49.3839 40.1906C49.0482 39.9187 48.6706 39.7326 48.251 39.6181C47.8314 39.5036 47.3838 39.5036 46.9223 39.5894C46.6845 39.6324 46.3208 39.7755 45.8593 39.9902C43.5655 41.2212 40.5584 42.5095 36.8379 43.8693C33.5231 45.0717 29.7607 46.3027 25.6067 47.5337C26.9774 39.3747 28.5159 31.545 30.2363 24.0588C30.3062 23.7296 30.3481 23.4147 30.3481 23.0998C30.3481 22.5702 30.2503 22.0835 30.0544 21.6541C29.8586 21.2247 29.5929 20.8525 29.2572 20.5519C28.9215 20.2513 28.5299 20.008 28.0823 19.8505C27.6348 19.6931 27.1732 19.6072 26.7116 19.6072C24.9074 19.6072 23.7885 20.5519 23.3689 22.427C22.4038 26.7212 21.4947 31.0583 20.6415 35.4527C19.7883 39.8471 18.9771 44.356 18.2078 48.9651C18.1798 49.1655 18.1518 49.3801 18.1099 49.5949C16.7392 49.9241 15.4524 50.2104 14.3195 50.4394C12.781 50.74 11.3404 50.9547 9.99768 51.0549L8.1934 4.7064C8.1934 4.57758 8.1934 4.46307 8.16542 4.37719C8.15144 4.29131 8.13746 4.19111 8.10949 4.09092C7.92766 3.11757 7.45211 2.40187 6.68285 1.94383C5.91359 1.48578 5.06041 1.35696 4.10932 1.54304C2.26309 1.9152 1.38194 3.06031 1.49384 4.96407L3.36803 51.6418C3.36803 51.7706 3.36803 51.8851 3.36803 51.9853C3.36803 52.0855 3.38202 52.1857 3.40999 52.2859C3.84358 54.6047 4.92055 56.1936 6.62691 57.0381C7.91368 57.7395 11.4243 57.5391 17.1029 56.4942C16.4735 60.9744 15.8161 65.7696 15.6203 67.8022C15.2986 71.1802 15.1308 74.0717 15.1308 76.4907C15.1308 78.9098 16.3056 80.1121 18.6694 80.1121C19.5925 80.1121 20.3897 79.8259 21.089 79.239C21.8303 78.5519 22.208 77.6358 22.208 76.505C22.208 74.1432 22.3758 71.2948 22.7115 67.9596C22.9353 65.6837 23.7745 59.8436 24.4878 54.9626C24.9773 54.8338 25.4668 54.7192 25.9424 54.5904C28.3621 53.8747 30.6978 53.159 32.9497 52.429C35.2015 51.699 37.3135 50.969 39.2856 50.239L39.2576 50.2676Z" fill="white"/>
<path d="M18.6697 81.6726C15.4947 81.6726 13.6625 79.8117 13.6625 76.5482C13.6625 74.1005 13.8303 71.1232 14.152 67.7165C14.2919 66.2135 14.6975 63.0788 15.3549 58.3838C8.93503 59.4287 6.93494 58.9707 5.9279 58.4268C3.82992 57.3818 2.48721 55.4208 1.95572 52.6296C1.92774 52.4865 1.89977 52.3004 1.88578 52.1286C1.88578 52.0141 1.88578 51.871 1.88578 51.6992L0.011583 5.07879C-0.142269 2.44503 1.2424 0.627158 3.81594 0.111857C5.11669 -0.145794 6.33351 0.0402783 7.41048 0.684405C8.54339 1.35716 9.28468 2.44503 9.55042 3.83348L9.60638 4.13406C9.63436 4.2772 9.64834 4.4776 9.64834 4.73525L11.3967 49.4233C12.2359 49.3088 13.117 49.1656 14.0261 48.9939C14.8793 48.8221 15.8024 48.6217 16.7955 48.3927C17.5508 43.8838 18.348 39.4465 19.1872 35.181C20.0404 30.8009 20.9635 26.4065 21.9286 22.1123C22.502 19.5502 24.2084 18.1331 26.712 18.1331C27.3554 18.1331 27.9847 18.2476 28.5862 18.4623C29.2156 18.6913 29.7611 19.0205 30.2366 19.4643C30.7261 19.908 31.1037 20.4376 31.3975 21.0531C31.6912 21.6829 31.8311 22.3843 31.8311 23.1429C31.8311 23.5581 31.7751 23.9875 31.6772 24.4312C30.1527 31.0442 28.74 38.1153 27.4672 45.444C30.7541 44.4421 33.7332 43.4401 36.3487 42.4954C39.9992 41.1642 42.9784 39.8759 45.1882 38.6879C45.8316 38.373 46.2792 38.2155 46.6568 38.1439C47.3282 38.0151 47.9856 38.0294 48.629 38.1869C49.2584 38.3443 49.8318 38.6449 50.3213 39.0457C50.7829 39.4322 51.1885 39.9045 51.5102 40.4485C51.8459 41.0067 52.0697 41.6079 52.1955 42.2663C52.6011 44.4134 51.8039 46.1883 49.9297 47.2905C49.8737 47.3335 49.8038 47.3764 49.7339 47.405C48.4611 48.0778 46.9646 48.7935 45.2862 49.5235C43.5798 50.2535 41.7196 50.9978 39.7615 51.7135C37.8033 52.4292 35.6634 53.1735 33.3696 53.9179C31.1038 54.6479 28.74 55.3922 26.3343 56.0936C26.1525 56.1508 25.9567 56.1938 25.7889 56.2367C24.8657 62.5635 24.3342 66.4855 24.1664 68.1745C23.8447 71.4381 23.6769 74.2723 23.6769 76.5768C23.6769 78.137 23.1174 79.4682 22.0684 80.4273C21.0614 81.2861 19.9285 81.6869 18.6697 81.6869V81.6726ZM17.1032 55.063C17.4808 55.063 17.8445 55.2061 18.1242 55.4781C18.4599 55.8073 18.6277 56.294 18.5578 56.7807C17.7466 62.5778 17.243 66.3567 17.0892 68.0171C16.7675 71.3379 16.6137 74.2007 16.6137 76.5482C16.6137 78.1227 17.1312 78.6666 18.6837 78.6666C19.2571 78.6666 19.7327 78.4949 20.1662 78.137C20.39 77.9366 20.7397 77.4929 20.7397 76.5625C20.7397 74.1578 20.9075 71.2377 21.2432 67.8596C21.425 66.0275 22.0125 61.7619 23.0195 54.791C23.1034 54.1898 23.537 53.7032 24.1244 53.56L24.4322 53.4741C24.8098 53.3739 25.1874 53.2881 25.5511 53.1879C27.9008 52.5008 30.2366 51.7708 32.4744 51.0408C34.7263 50.3108 36.8383 49.5807 38.7544 48.8794C40.6566 48.178 42.4749 47.4623 44.1253 46.7466C45.6498 46.0882 47.0205 45.444 48.1814 44.8285C48.2233 44.7999 48.2793 44.7713 48.3212 44.7426C49.3283 44.1987 49.4262 43.6119 49.2863 42.8389C49.2304 42.5383 49.1325 42.2663 48.9786 42.023C48.8248 41.7654 48.6569 41.5506 48.4611 41.3932C48.2933 41.2644 48.1115 41.1642 47.8877 41.1069C47.6779 41.0497 47.4401 41.0497 47.1883 41.1069C47.1883 41.1069 46.9925 41.1499 46.475 41.3932C44.2092 42.6099 41.1042 43.9554 37.3278 45.3295C34.0549 46.5176 30.2506 47.7629 26.0126 49.0225C25.5231 49.1657 25.0056 49.0368 24.628 48.6933C24.2503 48.3498 24.0685 47.8345 24.1664 47.3192C25.5511 39.06 27.1176 31.1301 28.81 23.7441C28.8519 23.5294 28.8799 23.329 28.8799 23.1286C28.8799 22.8137 28.824 22.5561 28.726 22.3271C28.6142 22.0837 28.4603 21.8833 28.2785 21.7116C28.0827 21.5398 27.8589 21.3967 27.5791 21.2965C27.2994 21.1963 27.0057 21.139 26.698 21.139C25.5651 21.139 25.0476 21.5827 24.7818 22.7851C23.8167 27.0506 22.9076 31.4164 22.0544 35.7678C21.2013 40.1336 20.39 44.6568 19.6208 49.2515L19.5368 49.8527C19.4529 50.4539 19.0054 50.9549 18.4179 51.098C17.0193 51.4272 15.7185 51.7278 14.5716 51.9569C12.9911 52.2718 11.4806 52.4865 10.0959 52.601C9.70428 52.6296 9.29867 52.5008 9.00495 52.2288C8.71123 51.9569 8.5294 51.5704 8.51541 51.1696L6.65521 4.46328C6.51535 3.74758 6.19365 3.47564 5.9279 3.31818C5.46635 3.04622 4.96284 2.97464 4.36141 3.08915C3.2285 3.31818 2.86484 3.79054 2.93477 4.94997L4.80897 51.6563C4.80897 51.8137 4.80897 51.8853 4.80897 51.9569C5.17262 53.9322 5.96987 55.1346 7.24265 55.7644C7.63427 55.9648 9.34062 56.4801 16.8234 55.0916C16.9074 55.0773 16.9913 55.063 17.0892 55.063H17.1032Z" fill="white"/>
<path d="M57.9025 61.4759C57.7347 59.3717 56.7277 58.2696 54.9094 58.198C54.4199 58.1837 53.8744 58.198 53.273 58.2266C52.6715 58.2696 52.0422 58.3125 51.3988 58.3698C49.063 58.5702 46.8671 58.8851 44.8111 59.3002C42.7551 59.7153 40.8669 60.2449 39.1745 60.8461C36.3212 61.9053 34.2093 63.1792 32.8106 64.6822C31.412 66.1852 30.7965 67.9028 30.9644 69.8352C31.0763 71.2809 31.8036 72.6407 33.1323 73.929C34.461 75.2172 36.2373 76.3624 38.4472 77.3643L49.105 81.5154H49.1749L49.3427 82.274C47.1189 83.5479 44.4335 84.5499 41.2725 85.3229C40.6571 85.466 39.664 85.6664 38.3073 85.9527C36.9506 86.2246 35.2023 86.5682 33.0903 86.9833C31.2861 87.3698 30.4609 88.6151 30.6287 90.7335C30.7126 91.7784 31.0623 92.6087 31.6637 93.2242C32.349 93.9828 33.1882 94.2404 34.1673 94.0114C37.2863 93.3959 39.9717 92.8234 42.1956 92.3081C44.4195 91.7928 46.1398 91.3061 47.3707 90.891C50.4477 89.7316 52.7835 88.3717 54.3639 86.8258C55.9444 85.2799 56.6577 83.5623 56.5039 81.6871C56.378 80.1842 55.6927 78.7671 54.4479 77.4359C53.2031 76.1047 51.4407 74.888 49.1749 73.8002C48.2938 73.4709 47.3566 73.1131 46.3496 72.7266C45.3426 72.3545 44.3216 71.9537 43.2865 71.5672C42.2655 71.1807 41.2585 70.7942 40.2655 70.4078C39.2724 70.0213 38.3633 69.6634 37.5101 69.3342C39.3843 68.275 41.5243 67.4305 43.916 66.8007C46.3077 66.1708 49.0071 65.7414 51.9862 65.4838C53.1471 65.3836 54.1402 65.3406 54.9933 65.355C55.9584 65.3836 56.7277 64.9828 57.3011 64.1526C57.8046 63.4655 58.0144 62.578 57.9165 61.4759H57.9025Z" fill="white"/>
<path d="M33.4809 95.6C32.4039 95.6 31.3969 95.1419 30.5857 94.2402C29.7605 93.4099 29.271 92.2505 29.1591 90.8478C28.9213 87.9993 30.25 86.0526 32.7816 85.5087C34.9215 85.0936 36.6699 84.75 38.0126 84.4781C39.3553 84.2061 40.3343 84.0057 40.9497 83.8626C42.9638 83.3759 44.7961 82.7747 46.4045 82.0733L37.9147 78.7668C35.481 77.6646 33.5509 76.4193 32.1102 75.0166C30.5158 73.485 29.6346 71.7673 29.4808 69.9494C29.2849 67.5733 30.0402 65.4549 31.7326 63.637C33.2711 61.9766 35.6069 60.5595 38.6559 59.4144C40.4322 58.7703 42.3904 58.2406 44.5023 57.8112C46.6143 57.3818 48.8802 57.0526 51.2579 56.8522C51.9152 56.7949 52.5586 56.752 53.174 56.7091C53.8314 56.6661 54.4188 56.6661 54.9503 56.6804C57.5239 56.795 59.1183 58.484 59.3561 61.3325C59.482 62.8068 59.1743 64.0521 58.447 65.0398C57.6358 66.2564 56.4049 66.9292 54.9224 66.8433C54.1391 66.8433 53.188 66.8719 52.0831 66.9578C49.1879 67.2012 46.5584 67.6306 44.2506 68.2318C43.2156 68.5037 42.2225 68.8186 41.2854 69.1765L43.775 70.1355C44.7961 70.522 45.8171 70.9085 46.8241 71.2949L49.6634 72.3685C52.209 73.5852 54.1251 74.9164 55.4958 76.3764C56.9784 77.9652 57.8036 79.6972 57.9574 81.5437C58.1532 83.8912 57.2721 86.024 55.3699 87.8991C53.6496 89.5881 51.118 91.0625 47.8731 92.2935C46.5584 92.7515 44.7681 93.2382 42.5163 93.7678C40.2784 94.2974 37.565 94.87 34.446 95.4855C34.1243 95.557 33.8026 95.6 33.4949 95.6H33.4809ZM49.5095 80.0694C50.0271 80.2125 50.4746 80.6276 50.6005 81.1716L50.7683 81.9445C50.9082 82.5886 50.6145 83.2614 50.055 83.5906C47.7193 84.9218 44.88 85.9953 41.6071 86.7826C40.9637 86.9257 39.9567 87.1405 38.586 87.4124C37.2293 87.6844 35.481 88.0279 33.355 88.443C32.6138 88.6005 31.9424 88.8867 32.0823 90.5901C32.1382 91.2629 32.334 91.7782 32.6837 92.136C33.0613 92.5511 33.355 92.637 33.8166 92.5368C36.9496 91.9213 39.635 91.3488 41.8309 90.8335C43.9848 90.3325 45.6772 89.8601 46.8661 89.4593C49.7054 88.3858 51.8873 87.1261 53.3139 85.7234C54.5727 84.4924 55.1182 83.2184 55.0063 81.8014C54.9084 80.6419 54.3769 79.5398 53.3559 78.4662C52.2369 77.2782 50.6145 76.1617 48.5165 75.1597L45.8031 74.1434C44.7961 73.7713 43.761 73.3705 42.74 72.984L39.7189 71.8246C38.7259 71.4381 37.8028 71.0802 36.9496 70.7367C36.4181 70.522 36.0544 70.021 36.0125 69.4341C35.9705 68.8473 36.2643 68.3033 36.7678 68.0171C38.7399 66.9006 41.0197 65.9988 43.5233 65.3403C45.9849 64.6962 48.7822 64.2382 51.8313 63.9805C53.0202 63.8803 54.0831 63.8374 54.9783 63.8517C55.4818 63.8803 55.7755 63.7086 56.0413 63.3078C56.363 62.8784 56.4609 62.3344 56.4049 61.6187C56.2651 59.9154 55.5797 59.7436 54.8105 59.715C54.3769 59.7007 53.8734 59.715 53.3279 59.7436C52.7404 59.7866 52.125 59.8295 51.4816 59.8867C49.2158 60.0871 47.0479 60.3877 45.0618 60.7885C43.0897 61.1893 41.2575 61.6903 39.621 62.2772C37.0195 63.2505 35.0754 64.4099 33.8446 65.7268C32.7396 66.9149 32.2641 68.2175 32.39 69.7204C32.4739 70.794 33.0333 71.8246 34.0963 72.8552C35.2992 74.0146 36.9496 75.0738 38.9916 76.0042L49.4816 80.0837L49.5095 80.0694Z" fill="white"/>
</svg>
