<svg width="281" height="300" viewBox="0 0 281 300" fill="none" xmlns="http://www.w3.org/2000/svg">
<rect width="281" height="300" fill="#FFCE40"/>
<g clip-path="url(#clip0_227_206)">
<path d="M76.5518 34.3184C76.5518 34.3184 73.7165 40.2125 79.7494 44.0223C79.7494 44.0223 83.5582 46.8551 84.1626 48.5002C84.767 50.1453 85.6707 31.271 76.5518 34.3184Z" fill="white"/>
<path d="M70.9398 43.029C70.9398 43.029 70.8589 39.2321 72.908 38.5664C74.9571 37.9008 74.8654 36.0123 74.4195 35.2916" fill="#FFECC5"/>
<path d="M70.8368 43.0284C69.6782 41.729 70.2178 40.3366 71.3885 39.4813C71.7593 39.0114 72.1323 38.1516 72.7072 37.765C73.3243 37.1323 74.0031 36.4589 74.3366 35.3526L74.5212 35.2511C76.1944 35.9582 75.688 38.7257 73.9879 39.1676C73.2697 39.574 72.3328 38.871 71.9592 39.8334C71.8347 40.161 72.0161 40.634 72.055 40.9831C72.0511 41.6808 71.7408 42.2947 71.0412 43.0501L70.8367 43.0489L70.8368 43.0284Z" fill="#FFECC5"/>
<path d="M48.2082 52.9096C41.2126 62.0524 40.7496 73.4753 47.174 78.4234C53.5985 83.3714 64.4775 79.9708 71.4731 70.828C78.4686 61.6852 78.9316 50.2623 72.5072 45.3142C66.0828 40.3662 55.2037 43.7668 48.2082 52.9096Z" fill="#FFECC5"/>
<path d="M74.1235 33.2179C74.6984 32.8312 67.0012 23.102 54.9882 31.5918C45.2849 40.3408 53.4536 35.3385 57.034 38.7857C60.6145 42.2328 73.3865 36.9897 74.1235 33.2179Z" fill="white"/>
<path d="M82.0333 56.2049C82.0333 56.2049 81.4394 45.428 68.8289 43.777C56.1977 42.1464 38.709 75.0665 55.0121 82.0533C71.3355 89.0606 85.2624 67.5918 82.0333 56.2049Z" fill="white"/>
<path d="M64.3524 43.1561C64.3524 43.1561 53.1799 40.3845 42.4965 56.1258C42.4965 56.1258 33.9865 70.9147 49.2159 79.7012C49.2159 79.7012 38.1744 57.2506 64.3319 43.156L64.3524 43.1561Z" fill="white"/>
<path d="M72.9522 59.2369C64.0585 65.6389 59.7473 74.8822 63.3228 79.8823C66.8983 84.8824 77.0067 83.746 85.9004 77.3439C94.7941 70.9418 99.1054 61.6986 95.5298 56.6984C91.9543 51.6983 81.846 52.8348 72.9522 59.2369Z" fill="white"/>
<path d="M95.5212 58.1885C104.23 66.3228 98.6471 84.2679 87.1923 88.0615C71.6387 93.289 63.2993 81.3604 63.2993 81.3604" fill="white"/>
<path d="M64.7005 83.0925C77.1895 84.5376 88.9583 79.4734 93.955 67.4762C95.1142 65.0201 95.8666 62.1719 96.638 59.5701C96.1731 62.2147 95.6041 65.2076 94.5468 67.7257C90.1201 80.1982 77.2022 85.9126 64.7005 83.0925Z" fill="#FFECC5"/>
<path d="M80.1156 55.2708C71.8102 59.1436 63.3671 65.6629 62.2694 75.3837C62.2453 76.0198 62.1746 77.6816 62.1505 78.3381C60.1476 67.1429 70.2412 58.0882 80.1361 55.2709L80.1156 55.2708Z" fill="#FFECC5"/>
<path d="M76.4734 65.6727C71.8383 69.0092 69.2232 73.3114 70.6324 75.2819C72.0415 77.2525 76.9413 76.1453 81.5763 72.8088C86.2113 69.4723 88.8264 65.1701 87.4173 63.1995C86.0081 61.2289 81.1084 62.3362 76.4734 65.6727Z" fill="#FFCF3F"/>
</g>
<g clip-path="url(#clip1_227_206)">
<path d="M108.851 150.061C114.087 151.352 118.075 155.234 119.062 160.036C119.975 164.474 118.012 168.071 117.398 169.099C115.486 168.988 110.165 168.452 107.565 164.713C106.486 163.164 105.773 160.906 105.307 159.438C104.679 157.473 104.369 155.775 104.19 154.603C104.343 157.165 104.496 159.727 104.085 162.26C103.743 164.311 103.008 166.979 100.76 169.131C97.3523 172.383 92.642 172.067 91.6057 171.981C90.8933 171.284 88.6901 168.962 88.3354 165.349C87.9917 161.686 89.6758 158.971 90.6777 157.687C92.3822 155.487 94.7018 153.8 97.1472 152.387C94.6585 153.426 92.109 154.485 89.4132 154.755C87.7575 154.911 84.5861 154.75 81.9898 152.432C79.9781 150.637 79.3458 148.38 79.1231 147.369C79.3547 146.315 79.9552 144.41 81.5867 142.873C84.5215 140.097 88.6159 140.474 90.3537 140.773C93.4174 141.295 96.1796 142.839 98.5931 144.701C97.7127 143.297 96.5527 141.233 95.5752 138.577C94.6649 136.094 93.9363 134.128 93.9822 131.71C94.0465 127.791 96.0997 124.74 97.5632 123.03C98.5197 123.075 104.317 123.448 106.987 127.732C108.082 129.502 108.269 131.319 108.413 132.782C108.82 136.84 107.69 140.107 106.91 141.889C109.817 137.933 114.413 135.788 118.916 136.383C123.037 136.931 125.597 139.581 126.386 140.48C126.285 141.567 125.916 144.02 124.071 146.198C122.432 148.117 120.494 148.822 118.719 149.429C114.854 150.77 111.26 150.542 108.86 150.112L108.851 150.061Z" fill="white"/>
<path d="M105.286 146.761C104.407 145.851 102.954 145.829 102.042 146.711C101.129 147.592 101.101 149.045 101.98 149.954C102.859 150.864 104.311 150.887 105.224 150.005C106.137 149.123 106.164 147.671 105.286 146.761Z" fill="#FFCF3F"/>
</g>
<g clip-path="url(#clip2_227_206)">
<path d="M204.714 90.0895C198.303 95.4751 189.779 96.9233 182.829 93.7553C176.441 90.8362 173.742 85.0433 173 83.3235C174.889 81.0154 180.467 74.8377 187.53 74.9961C190.476 75.064 193.94 76.2407 196.212 77.0101C199.248 78.0284 201.655 79.1824 203.297 80.065C199.945 77.9152 196.594 75.7429 193.782 72.8917C191.511 70.5836 188.857 67.1893 188.227 62.3694C187.282 55.1056 192.006 49.471 193.063 48.2491C194.592 47.9775 199.54 47.3439 204.376 50.2404C209.279 53.1595 211.124 57.7984 211.821 60.2423C213.013 64.4059 212.991 68.8864 212.518 73.2537C213.508 69.158 214.497 64.9943 216.657 61.3511C217.984 59.1108 221.088 55.2866 226.396 54.1552C230.489 53.2953 233.908 54.5625 235.37 55.1961C236.472 56.4633 238.316 58.9524 238.744 62.4372C239.531 68.6828 235.302 73.5027 233.323 75.4035C229.859 78.7751 225.384 80.8343 220.818 82.1694C223.382 82.3505 227.025 82.803 231.254 84.025C235.19 85.1564 238.339 86.0616 241.33 88.3244C246.166 92.0129 248.123 97.3985 248.933 100.815C247.988 101.969 242.207 108.916 234.403 108.328C231.164 108.079 228.735 106.631 226.778 105.477C221.335 102.241 218.276 97.8284 216.747 95.2262C219.041 102.513 217.511 110.274 212.608 115.388C208.132 120.05 202.442 120.842 200.62 121.023C199.338 119.914 196.616 117.176 195.582 112.854C194.682 109.03 195.582 105.93 196.437 103.146C198.303 97.0364 201.902 92.7596 204.624 90.1347L204.714 90.0895Z" fill="#FDFDFD"/>
<path d="M211.528 87.4641C213.491 87.4641 215.082 85.8634 215.082 83.8888C215.082 81.9142 213.491 80.3135 211.528 80.3135C209.566 80.3135 207.975 81.9142 207.975 83.8888C207.975 85.8634 209.566 87.4641 211.528 87.4641Z" fill="#FFCF3F"/>
<path d="M206.783 79.3404C204.579 78.39 203.049 76.5345 201.137 75.1994C199.316 73.8417 197.156 72.1898 196.414 70.04C197.741 71.5788 199.9 73.5022 201.34 74.9505C202.937 76.625 205.388 77.5528 206.805 79.3404H206.783Z" fill="#FFCF3F"/>
<path d="M208.223 78.4811C205.704 76.2409 204.174 73.2086 202.24 70.5158C200.395 67.8456 198.529 64.6324 198.281 61.3965C200.44 67.9362 204.354 73.0729 208.223 78.4811Z" fill="#FFCF3F"/>
<path d="M209.842 77.5074C208.83 76.2176 208.785 74.5657 207.975 73.1854C207.233 71.8276 206.446 70.3115 206.131 68.8633C207.233 70.0626 207.818 71.5561 208.245 73.0722C208.605 74.5883 209.909 75.946 209.82 77.5074H209.842Z" fill="#FFCF3F"/>
<path d="M211.033 77.3263C209.729 71.5787 208.469 65.6726 206.58 60.1738C208.244 62.6856 208.897 65.6726 209.437 68.5917C209.864 71.4882 211.191 74.4525 211.056 77.349L211.033 77.3263Z" fill="#FFCF3F"/>
<path d="M214.07 77.802C213.868 75.3355 214.992 73.1405 215.599 70.8324C216.252 68.6148 217.444 66.0803 219.401 64.8584C217.961 66.7592 216.881 68.7732 215.869 70.9229C214.812 73.05 214.947 75.6749 214.07 77.7794V77.802Z" fill="#FFCF3F"/>
<path d="M217.399 80.6307C218.704 79.0467 220.593 78.2321 221.92 76.6934C223.27 75.2225 224.552 73.5932 225.879 72.2129C225.182 74.159 223.697 75.6751 222.145 76.9196C220.548 78.0737 219.289 80.0424 217.422 80.6307H217.399Z" fill="#FFCF3F"/>
<path d="M216.342 78.8879C216.994 76.1045 218.748 73.819 219.918 71.262C221.155 68.8634 222.64 65.8764 225.159 64.7676C223.314 66.3516 221.582 69.4291 220.188 71.4204C218.613 73.7285 217.984 76.7155 216.342 78.8879Z" fill="#FFCF3F"/>
<path d="M218.051 81.7623C219.175 80.8798 220.637 80.9703 221.807 80.2462C222.954 79.4995 224.169 79.0243 225.271 78.2549C224.866 79.5447 223.156 80.1557 221.919 80.5404C220.615 80.8345 219.4 82.0112 218.028 81.785L218.051 81.7623Z" fill="#FFCF3F"/>
<path d="M218.209 83.8665C221.56 83.414 226.261 84.5454 229.545 85.2469C233.256 86.0163 237.079 87.5776 239.508 90.6325C235.145 87.2156 229.522 84.8848 223.877 84.5454C223.877 84.5001 218.096 83.9797 218.209 83.8665Z" fill="#FFCF3F"/>
<path d="M215.937 89.2297C216.971 90.9721 217.219 93.0086 218.366 94.6605C219.445 96.3124 220.772 97.8738 221.875 99.4352C220.12 98.3943 218.883 96.6292 218.096 94.7963C217.399 92.9634 215.869 91.1984 215.937 89.207V89.2297Z" fill="#FFCF3F"/>
<path d="M217.151 88.1201C221.425 93.2794 226.148 98.1446 231.884 101.516C228.667 100.453 225.946 98.2125 223.674 95.7686C221.47 93.3021 218.568 91.0845 217.151 88.1201Z" fill="#FFCF3F"/>
<path d="M218.142 86.3334C219.761 86.1298 221.088 87.1028 222.595 87.4422C224.012 87.8043 225.766 88.551 226.464 89.8635L222.483 87.7138C221.178 86.9444 219.356 87.1933 218.142 86.3334Z" fill="#FFCF3F"/>
<path d="M217.376 87.0566C219.625 87.9844 221.245 89.8173 223.336 90.9714C225.338 92.1707 227.565 93.4832 229.117 95.1577C226.958 94.0941 225.023 92.7364 223.156 91.2429C221.38 89.7042 218.838 88.8669 217.376 87.0566Z" fill="#FFCF3F"/>
<path d="M206.85 89.5234C203.049 95.4748 199.18 101.788 198.685 108.961C198.123 105.363 199.517 101.743 201.204 98.6202C202.936 95.5653 204.331 91.9447 206.872 89.5234H206.85Z" fill="#FFCF3F"/>
<path d="M213.013 90.9943C213.756 94.2528 213.103 97.5566 212.968 100.815C212.766 104.028 212.136 107.626 210.337 110.251C212.721 103.847 212.991 97.6019 213.013 90.9717V90.9943Z" fill="#FFCF3F"/>
<path d="M210.247 90.8135C209.954 92.7369 208.695 94.253 208.2 96.1086C207.66 97.8962 207.053 99.8423 206.198 101.404C206.288 99.4576 207.053 97.6926 207.908 95.9954C208.83 94.3662 208.965 92.1712 210.247 90.8135Z" fill="#FFCF3F"/>
<path d="M208.358 90.4971C208.223 91.5832 207.211 92.0811 206.896 93.0541C206.581 94.0045 206.108 94.8191 205.546 95.6338C205.276 94.6834 206.041 93.5972 206.626 92.8957C207.323 92.2168 207.368 90.8365 208.358 90.4971Z" fill="#FFCF3F"/>
<path d="M211.304 90.9035C211.304 93.981 210.157 96.8322 209.707 99.8418C209.145 102.738 208.628 106.155 206.738 108.373C207.795 105.997 208.628 102.286 209.415 99.7513C210.314 96.9001 210.202 93.5963 211.304 90.8809V90.9035Z" fill="#FFCF3F"/>
<path d="M204.826 82.2143C198.775 79.9062 192.545 77.3039 186.045 77.4849C189.261 76.5571 192.68 77.4849 195.739 78.5711C198.753 79.7478 202.262 80.3135 204.848 82.2143H204.826Z" fill="#FFCF3F"/>
<path d="M205.726 87.6002C203.994 89.4557 201.497 90.0441 199.271 90.9945C197.066 91.8996 194.255 92.3748 192.028 91.5828C195.605 91.3792 199.406 91.2208 202.487 89.2521C202.487 89.2973 205.748 87.4192 205.726 87.6002Z" fill="#FFCF3F"/>
<path d="M204.286 83.6399C197.471 82.4406 190.364 81.2639 183.661 83.2552C186.743 81.4902 190.521 81.4902 193.962 81.8748C197.381 82.35 201.16 82.2369 204.286 83.6399Z" fill="#FFCF3F"/>
<path d="M204.691 85.8574C203.342 86.8757 201.655 86.8078 200.171 87.4188C198.731 87.9393 196.842 88.5276 195.447 87.8714C197.741 87.3962 200.216 87.4188 202.352 86.4005C203.072 86.1742 203.972 85.7895 204.691 85.8801V85.8574Z" fill="#FFCF3F"/>
</g>
<g clip-path="url(#clip3_227_206)">
<path d="M158.582 192.601C158.582 192.601 154.968 207.366 161.881 222.78C168.795 238.193 180.647 241.686 188.275 237.733C195.903 233.781 203.868 227.465 207.755 216.715C207.755 216.715 218.557 210.169 213.387 203.518C208.218 196.868 205.759 210.524 205.759 210.524C205.759 210.524 205.759 189.736 187.687 183.315C187.687 183.315 182.874 188.565 176.549 186.118C167.639 189.611 170.455 197.453 158.582 192.601Z" fill="white"/>
<path d="M188.612 244.949L189.347 244.405C190.44 243.757 188.612 238.319 188.612 238.319C188.612 238.319 188.065 236.646 187.561 236.604C187.057 236.562 202.355 224.955 202.313 224.265C202.271 223.575 202.859 226.9 202.859 226.9C202.859 226.9 204.919 235.454 208.596 239.218C216.561 252.101 222.108 254.653 224 273.496C224 273.496 188.843 282.51 178.966 273.496C178.966 273.496 181.32 271.258 180.458 269.732C178.966 267.097 133.68 277.47 129.499 279.122C125.317 280.774 119.265 279.582 119.265 279.582C111.195 276.675 119.412 261.805 119.412 261.805L91.6941 233.655C91.6941 233.655 89.0043 229.201 88.2477 231.71C87.4912 234.22 81.6913 233.258 80.4305 233.091C79.1696 232.923 77.0892 234.806 76.2276 235.433C75.366 236.06 71.2262 236.521 75.4711 233.781C79.716 231.041 79.2116 230.058 79.2116 230.058C74.6095 228.406 71.1212 229.661 71.1212 229.661C69.398 232.338 67.5698 233.551 67.1495 233.258C66.7292 232.965 69.6291 230.225 68.8096 229.535C67.99 228.845 63.472 232.631 62.8416 234.157C62.2111 235.684 60.2568 234.492 60.2568 234.492C60.2568 234.492 60.9503 235.642 57.9032 235.287C54.8562 234.931 61.1184 232.15 58.2394 232.191C55.3605 232.233 58.0713 230.811 59.5633 229.724C61.0553 228.636 68.0111 224.809 76.5008 221.985C84.9905 219.162 90.139 222.487 90.139 222.487C90.139 222.487 124.749 247.082 131.957 250.282C139.165 253.482 169.489 248.609 169.489 248.609C178.336 244.886 186.195 244.886 186.195 244.886C211.013 244.384 209.164 261.743 209.164 261.743" fill="white"/>
<path d="M134.626 251.035C134.626 251.035 142.59 244.74 146.394 244.489C150.198 244.238 158.603 244.844 158.96 244.844C159.318 244.844 168.585 247.772 168.585 248.818C168.585 249.863 137.904 255.301 134.626 251.056V251.035Z" fill="white"/>
<path d="M120.631 262.496C124.666 265.193 129.247 267.117 134.08 267.431C142.233 266.699 150.534 266.323 158.562 268.31V268.414C152.005 268.268 145.533 267.745 138.997 267.619C135.761 267.619 132.42 268.1 129.121 267.389C125.989 266.636 122.438 264.942 120.631 262.475V262.496Z" fill="#FFCF42"/>
<path d="M134.143 276.11C135.214 274.876 136.517 274.186 137.904 273.454C139.732 271.697 140.951 269.585 141.939 267.264C142.527 267.891 142.002 269.69 141.582 270.463C140.804 271.948 139.333 272.701 138.114 273.726C137.085 274.939 135.845 275.985 134.185 276.194L134.143 276.11Z" fill="#FFCF42"/>
<path d="M134.606 251.516C135.971 251.369 137.064 251.955 138.073 252.729C139.208 253.231 140.511 253.314 141.561 254.067C142.213 254.548 142.969 255.238 143.053 256.179L142.948 256.221C142.318 255.698 141.624 255.427 140.952 255.008C139.922 254.465 139.018 253.503 137.926 253.042C136.686 252.833 135.53 252.561 134.563 251.62L134.606 251.516Z" fill="#FFCF42"/>
<path d="M179.891 269.125C181.383 268.372 183.064 268.644 184.493 269.376C187.141 269.836 189.83 271.656 189.725 274.604L189.62 274.625C188.149 272.659 186.825 270.484 184.409 269.69C182.938 269.501 181.215 269.773 179.912 269.104L179.891 269.125Z" fill="#FFCF42"/>
<path d="M148.958 249.612L143.894 251.808C143.894 251.808 142.528 251.724 143.137 253.837C143.746 255.949 146.31 263.373 146.31 263.373C146.31 263.373 146.773 265.569 148.958 265.339C151.143 265.109 173.86 257.831 173.86 257.831C173.86 257.831 174.469 256.534 173.86 255.217C173.25 253.899 170.245 245.68 170.245 245.68C170.245 245.68 169.258 245.032 168.291 245.345C167.324 245.659 148.979 249.591 148.979 249.591L148.958 249.612Z" fill="#FFCF42" stroke="#FFCF42" stroke-width="0.5" stroke-miterlimit="10"/>
<path d="M144.23 253.649C144.288 253.649 144.335 253.602 144.335 253.544C144.335 253.486 144.288 253.439 144.23 253.439C144.172 253.439 144.125 253.486 144.125 253.544C144.125 253.602 144.172 253.649 144.23 253.649Z" stroke="#FDFDFD" stroke-width="0.25" stroke-miterlimit="10"/>
<path d="M145.595 252.247C145.653 252.247 145.7 252.2 145.7 252.143C145.7 252.085 145.653 252.038 145.595 252.038C145.537 252.038 145.49 252.085 145.49 252.143C145.49 252.2 145.537 252.247 145.595 252.247Z" stroke="#FDFDFD" stroke-width="0.25" stroke-miterlimit="10"/>
<path d="M148.075 251.766C148.133 251.766 148.18 251.719 148.18 251.661C148.18 251.603 148.133 251.557 148.075 251.557C148.017 251.557 147.97 251.603 147.97 251.661C147.97 251.719 148.017 251.766 148.075 251.766Z" stroke="#FDFDFD" stroke-width="0.25" stroke-miterlimit="10"/>
<path d="M146.982 253.753C147.04 253.753 147.087 253.706 147.087 253.649C147.087 253.591 147.04 253.544 146.982 253.544C146.924 253.544 146.877 253.591 146.877 253.649C146.877 253.706 146.924 253.753 146.982 253.753Z" stroke="#FDFDFD" stroke-width="0.25" stroke-miterlimit="10"/>
<path d="M149.862 252.749C149.92 252.749 149.967 252.702 149.967 252.645C149.967 252.587 149.92 252.54 149.862 252.54C149.804 252.54 149.757 252.587 149.757 252.645C149.757 252.702 149.804 252.749 149.862 252.749Z" stroke="#FDFDFD" stroke-width="0.25" stroke-miterlimit="10"/>
<path d="M145.154 255.803C145.212 255.803 145.259 255.756 145.259 255.698C145.259 255.641 145.212 255.594 145.154 255.594C145.096 255.594 145.049 255.641 145.049 255.698C145.049 255.756 145.096 255.803 145.154 255.803Z" stroke="#FDFDFD" stroke-width="0.25" stroke-miterlimit="10"/>
<path d="M149.168 254.841C149.226 254.841 149.273 254.794 149.273 254.736C149.273 254.679 149.226 254.632 149.168 254.632C149.11 254.632 149.062 254.679 149.062 254.736C149.062 254.794 149.11 254.841 149.168 254.841Z" stroke="#FDFDFD" stroke-width="0.25" stroke-miterlimit="10"/>
<path d="M146.205 258.751C146.263 258.751 146.31 258.704 146.31 258.647C146.31 258.589 146.263 258.542 146.205 258.542C146.147 258.542 146.1 258.589 146.1 258.647C146.1 258.704 146.147 258.751 146.205 258.751Z" stroke="#FDFDFD" stroke-width="0.25" stroke-miterlimit="10"/>
<path d="M147.213 256.409C147.271 256.409 147.319 256.363 147.319 256.305C147.319 256.247 147.271 256.2 147.213 256.2C147.155 256.2 147.108 256.247 147.108 256.305C147.108 256.363 147.155 256.409 147.213 256.409Z" stroke="#FDFDFD" stroke-width="0.25" stroke-miterlimit="10"/>
<path d="M151.459 255.321C151.517 255.321 151.564 255.275 151.564 255.217C151.564 255.159 151.517 255.112 151.459 255.112C151.401 255.112 151.354 255.159 151.354 255.217C151.354 255.275 151.401 255.321 151.459 255.321Z" stroke="#FDFDFD" stroke-width="0.25" stroke-miterlimit="10"/>
<path d="M149.966 257.685C150.024 257.685 150.071 257.638 150.071 257.58C150.071 257.522 150.024 257.476 149.966 257.476C149.908 257.476 149.861 257.522 149.861 257.58C149.861 257.638 149.908 257.685 149.966 257.685Z" stroke="#FDFDFD" stroke-width="0.25" stroke-miterlimit="10"/>
<path d="M151.459 260.152C151.517 260.152 151.564 260.106 151.564 260.048C151.564 259.99 151.517 259.943 151.459 259.943C151.401 259.943 151.354 259.99 151.354 260.048C151.354 260.106 151.401 260.152 151.459 260.152Z" stroke="#FDFDFD" stroke-width="0.25" stroke-miterlimit="10"/>
<path d="M148.684 259.944C148.742 259.944 148.789 259.897 148.789 259.839C148.789 259.781 148.742 259.734 148.684 259.734C148.626 259.734 148.579 259.781 148.579 259.839C148.579 259.897 148.626 259.944 148.684 259.944Z" stroke="#FDFDFD" stroke-width="0.25" stroke-miterlimit="10"/>
<path d="M152.761 258.271C152.819 258.271 152.866 258.224 152.866 258.166C152.866 258.108 152.819 258.062 152.761 258.062C152.703 258.062 152.656 258.108 152.656 258.166C152.656 258.224 152.703 258.271 152.761 258.271Z" stroke="#FDFDFD" stroke-width="0.25" stroke-miterlimit="10"/>
<path d="M147.319 262.265C147.377 262.265 147.424 262.218 147.424 262.16C147.424 262.102 147.377 262.056 147.319 262.056C147.261 262.056 147.214 262.102 147.214 262.16C147.214 262.218 147.261 262.265 147.319 262.265Z" stroke="#FDFDFD" stroke-width="0.25" stroke-miterlimit="10"/>
<path d="M154.695 260.634C154.753 260.634 154.8 260.587 154.8 260.529C154.8 260.472 154.753 260.425 154.695 260.425C154.637 260.425 154.59 260.472 154.59 260.529C154.59 260.587 154.637 260.634 154.695 260.634Z" stroke="#FDFDFD" stroke-width="0.25" stroke-miterlimit="10"/>
<path d="M148.79 264.712C148.848 264.712 148.895 264.665 148.895 264.607C148.895 264.55 148.848 264.503 148.79 264.503C148.732 264.503 148.685 264.55 148.685 264.607C148.685 264.665 148.732 264.712 148.79 264.712Z" stroke="#FDFDFD" stroke-width="0.25" stroke-miterlimit="10"/>
<path d="M149.966 262.369C150.024 262.369 150.071 262.322 150.071 262.265C150.071 262.207 150.024 262.16 149.966 262.16C149.908 262.16 149.861 262.207 149.861 262.265C149.861 262.322 149.908 262.369 149.966 262.369Z" stroke="#FDFDFD" stroke-width="0.25" stroke-miterlimit="10"/>
<path d="M152.741 262.182C152.799 262.182 152.846 262.135 152.846 262.077C152.846 262.019 152.799 261.973 152.741 261.973C152.683 261.973 152.636 262.019 152.636 262.077C152.636 262.135 152.683 262.182 152.741 262.182Z" stroke="#FDFDFD" stroke-width="0.25" stroke-miterlimit="10"/>
<path d="M156.775 258.877C156.833 258.877 156.88 258.83 156.88 258.773C156.88 258.715 156.833 258.668 156.775 258.668C156.717 258.668 156.67 258.715 156.67 258.773C156.67 258.83 156.717 258.877 156.775 258.877Z" stroke="#FDFDFD" stroke-width="0.25" stroke-miterlimit="10"/>
<path d="M154.485 263.29C154.543 263.29 154.59 263.243 154.59 263.186C154.59 263.128 154.543 263.081 154.485 263.081C154.427 263.081 154.38 263.128 154.38 263.186C154.38 263.243 154.427 263.29 154.485 263.29Z" stroke="#FDFDFD" stroke-width="0.25" stroke-miterlimit="10"/>
<path d="M151.585 263.98C151.643 263.98 151.69 263.933 151.69 263.875C151.69 263.817 151.643 263.771 151.585 263.771C151.527 263.771 151.479 263.817 151.479 263.875C151.479 263.933 151.527 263.98 151.585 263.98Z" stroke="#FDFDFD" stroke-width="0.25" stroke-miterlimit="10"/>
<path d="M154.485 253C154.543 253 154.59 252.953 154.59 252.896C154.59 252.838 154.543 252.791 154.485 252.791C154.427 252.791 154.38 252.838 154.38 252.896C154.38 252.953 154.427 253 154.485 253Z" stroke="#FDFDFD" stroke-width="0.25" stroke-miterlimit="10"/>
<path d="M155.536 255.949C155.594 255.949 155.641 255.903 155.641 255.845C155.641 255.787 155.594 255.74 155.536 255.74C155.478 255.74 155.431 255.787 155.431 255.845C155.431 255.903 155.478 255.949 155.536 255.949Z" stroke="#FDFDFD" stroke-width="0.25" stroke-miterlimit="10"/>
<path d="M156.544 253.607C156.602 253.607 156.649 253.56 156.649 253.502C156.649 253.444 156.602 253.397 156.544 253.397C156.486 253.397 156.438 253.444 156.438 253.502C156.438 253.56 156.486 253.607 156.544 253.607Z" stroke="#FDFDFD" stroke-width="0.25" stroke-miterlimit="10"/>
<path d="M160.768 252.519C160.826 252.519 160.873 252.472 160.873 252.414C160.873 252.356 160.826 252.31 160.768 252.31C160.71 252.31 160.663 252.356 160.663 252.414C160.663 252.472 160.71 252.519 160.768 252.519Z" stroke="#FDFDFD" stroke-width="0.25" stroke-miterlimit="10"/>
<path d="M159.296 254.882C159.355 254.882 159.402 254.835 159.402 254.777C159.402 254.72 159.355 254.673 159.296 254.673C159.238 254.673 159.191 254.72 159.191 254.777C159.191 254.835 159.238 254.882 159.296 254.882Z" stroke="#FDFDFD" stroke-width="0.25" stroke-miterlimit="10"/>
<path d="M160.768 257.351C160.826 257.351 160.873 257.304 160.873 257.246C160.873 257.188 160.826 257.142 160.768 257.142C160.71 257.142 160.663 257.188 160.663 257.246C160.663 257.304 160.71 257.351 160.768 257.351Z" stroke="#FDFDFD" stroke-width="0.25" stroke-miterlimit="10"/>
<path d="M158.015 257.141C158.073 257.141 158.12 257.094 158.12 257.036C158.12 256.978 158.073 256.932 158.015 256.932C157.957 256.932 157.91 256.978 157.91 257.036C157.91 257.094 157.957 257.141 158.015 257.141Z" stroke="#FDFDFD" stroke-width="0.25" stroke-miterlimit="10"/>
<path d="M162.091 255.468C162.149 255.468 162.196 255.421 162.196 255.363C162.196 255.306 162.149 255.259 162.091 255.259C162.033 255.259 161.986 255.306 161.986 255.363C161.986 255.421 162.033 255.468 162.091 255.468Z" stroke="#FDFDFD" stroke-width="0.25" stroke-miterlimit="10"/>
<path d="M156.859 261.931C156.917 261.931 156.964 261.884 156.964 261.826C156.964 261.768 156.917 261.722 156.859 261.722C156.801 261.722 156.754 261.768 156.754 261.826C156.754 261.884 156.801 261.931 156.859 261.931Z" stroke="#FDFDFD" stroke-width="0.25" stroke-miterlimit="10"/>
<path d="M157.91 264.901C157.968 264.901 158.015 264.854 158.015 264.796C158.015 264.738 157.968 264.691 157.91 264.691C157.852 264.691 157.805 264.738 157.805 264.796C157.805 264.854 157.852 264.901 157.91 264.901Z" stroke="#FDFDFD" stroke-width="0.25" stroke-miterlimit="10"/>
<path d="M158.919 262.537C158.977 262.537 159.024 262.49 159.024 262.433C159.024 262.375 158.977 262.328 158.919 262.328C158.861 262.328 158.813 262.375 158.813 262.433C158.813 262.49 158.861 262.537 158.919 262.537Z" stroke="#FDFDFD" stroke-width="0.25" stroke-miterlimit="10"/>
<path d="M158.813 260.048C158.871 260.048 158.918 260.001 158.918 259.943C158.918 259.886 158.871 259.839 158.813 259.839C158.755 259.839 158.708 259.886 158.708 259.943C158.708 260.001 158.755 260.048 158.813 260.048Z" stroke="#FDFDFD" stroke-width="0.25" stroke-miterlimit="10"/>
<path d="M161.671 263.813C161.73 263.813 161.777 263.766 161.777 263.708C161.777 263.65 161.73 263.604 161.671 263.604C161.613 263.604 161.566 263.65 161.566 263.708C161.566 263.766 161.613 263.813 161.671 263.813Z" stroke="#FDFDFD" stroke-width="0.25" stroke-miterlimit="10"/>
<path d="M163.164 266.301C163.222 266.301 163.269 266.254 163.269 266.196C163.269 266.139 163.222 266.092 163.164 266.092C163.106 266.092 163.059 266.139 163.059 266.196C163.059 266.254 163.106 266.301 163.164 266.301Z" stroke="#FDFDFD" stroke-width="0.25" stroke-miterlimit="10"/>
<path d="M160.389 266.092C160.447 266.092 160.494 266.045 160.494 265.987C160.494 265.93 160.447 265.883 160.389 265.883C160.331 265.883 160.284 265.93 160.284 265.987C160.284 266.045 160.331 266.092 160.389 266.092Z" stroke="#FDFDFD" stroke-width="0.25" stroke-miterlimit="10"/>
<path d="M164.466 264.419C164.524 264.419 164.571 264.372 164.571 264.315C164.571 264.257 164.524 264.21 164.466 264.21C164.408 264.21 164.361 264.257 164.361 264.315C164.361 264.372 164.408 264.419 164.466 264.419Z" stroke="#FDFDFD" stroke-width="0.25" stroke-miterlimit="10"/>
<path d="M161.125 260.927C161.183 260.927 161.23 260.88 161.23 260.822C161.23 260.765 161.183 260.718 161.125 260.718C161.067 260.718 161.02 260.765 161.02 260.822C161.02 260.88 161.067 260.927 161.125 260.927Z" stroke="#FDFDFD" stroke-width="0.25" stroke-miterlimit="10"/>
<path d="M163.458 263.018C163.516 263.018 163.563 262.971 163.563 262.913C163.563 262.855 163.516 262.809 163.458 262.809C163.4 262.809 163.353 262.855 163.353 262.913C163.353 262.971 163.4 263.018 163.458 263.018Z" stroke="#FDFDFD" stroke-width="0.25" stroke-miterlimit="10"/>
<path d="M160.159 258.062C160.217 258.062 160.264 258.015 160.264 257.957C160.264 257.899 160.217 257.853 160.159 257.853C160.101 257.853 160.054 257.899 160.054 257.957C160.054 258.015 160.101 258.062 160.159 258.062Z" stroke="#FDFDFD" stroke-width="0.25" stroke-miterlimit="10"/>
<path d="M166.442 257.518C166.5 257.518 166.547 257.471 166.547 257.413C166.547 257.355 166.5 257.309 166.442 257.309C166.384 257.309 166.337 257.355 166.337 257.413C166.337 257.471 166.384 257.518 166.442 257.518Z" stroke="#FDFDFD" stroke-width="0.25" stroke-miterlimit="10"/>
<path d="M164.361 260.194C164.419 260.194 164.466 260.148 164.466 260.09C164.466 260.032 164.419 259.985 164.361 259.985C164.303 259.985 164.256 260.032 164.256 260.09C164.256 260.148 164.303 260.194 164.361 260.194Z" stroke="#FDFDFD" stroke-width="0.25" stroke-miterlimit="10"/>
<path d="M168.732 261.784C168.79 261.784 168.837 261.738 168.837 261.68C168.837 261.622 168.79 261.575 168.732 261.575C168.674 261.575 168.627 261.622 168.627 261.68C168.627 261.738 168.674 261.784 168.732 261.784Z" stroke="#FDFDFD" stroke-width="0.25" stroke-miterlimit="10"/>
<path d="M166.211 262.913C166.269 262.913 166.316 262.866 166.316 262.809C166.316 262.751 166.269 262.704 166.211 262.704C166.153 262.704 166.105 262.751 166.105 262.809C166.105 262.866 166.153 262.913 166.211 262.913Z" stroke="#FDFDFD" stroke-width="0.25" stroke-miterlimit="10"/>
<path d="M167.198 259.713C167.256 259.713 167.303 259.666 167.303 259.608C167.303 259.551 167.256 259.504 167.198 259.504C167.14 259.504 167.093 259.551 167.093 259.608C167.093 259.666 167.14 259.713 167.198 259.713Z" stroke="#FDFDFD" stroke-width="0.25" stroke-miterlimit="10"/>
<path d="M169.867 260.299C169.925 260.299 169.972 260.252 169.972 260.194C169.972 260.137 169.925 260.09 169.867 260.09C169.809 260.09 169.762 260.137 169.762 260.194C169.762 260.252 169.809 260.299 169.867 260.299Z" stroke="#FDFDFD" stroke-width="0.25" stroke-miterlimit="10"/>
<path d="M168.795 257.769C168.854 257.769 168.901 257.722 168.901 257.664C168.901 257.606 168.854 257.56 168.795 257.56C168.737 257.56 168.69 257.606 168.69 257.664C168.69 257.722 168.737 257.769 168.795 257.769Z" stroke="#FDFDFD" stroke-width="0.25" stroke-miterlimit="10"/>
<path d="M166.652 255.614C166.71 255.614 166.757 255.568 166.757 255.51C166.757 255.452 166.71 255.405 166.652 255.405C166.594 255.405 166.547 255.452 166.547 255.51C166.547 255.568 166.594 255.614 166.652 255.614Z" stroke="#FDFDFD" stroke-width="0.25" stroke-miterlimit="10"/>
<path d="M171.443 258.542C171.501 258.542 171.548 258.495 171.548 258.438C171.548 258.38 171.501 258.333 171.443 258.333C171.385 258.333 171.338 258.38 171.338 258.438C171.338 258.495 171.385 258.542 171.443 258.542Z" stroke="#FDFDFD" stroke-width="0.25" stroke-miterlimit="10"/>
<path d="M168.837 255.343C168.896 255.343 168.943 255.296 168.943 255.238C168.943 255.181 168.896 255.134 168.837 255.134C168.779 255.134 168.732 255.181 168.732 255.238C168.732 255.296 168.779 255.343 168.837 255.343Z" stroke="#FDFDFD" stroke-width="0.25" stroke-miterlimit="10"/>
<path d="M173.67 256.325C173.729 256.325 173.776 256.279 173.776 256.221C173.776 256.163 173.729 256.116 173.67 256.116C173.612 256.116 173.565 256.163 173.565 256.221C173.565 256.279 173.612 256.325 173.67 256.325Z" stroke="#FDFDFD" stroke-width="0.25" stroke-miterlimit="10"/>
<path d="M171.107 256.43C171.165 256.43 171.212 256.383 171.212 256.325C171.212 256.268 171.165 256.221 171.107 256.221C171.049 256.221 171.002 256.268 171.002 256.325C171.002 256.383 171.049 256.43 171.107 256.43Z" stroke="#FDFDFD" stroke-width="0.25" stroke-miterlimit="10"/>
<path d="M168.312 253.084C168.37 253.084 168.417 253.037 168.417 252.98C168.417 252.922 168.37 252.875 168.312 252.875C168.254 252.875 168.207 252.922 168.207 252.98C168.207 253.037 168.254 253.084 168.312 253.084Z" stroke="#FDFDFD" stroke-width="0.25" stroke-miterlimit="10"/>
<path d="M171.086 253.398C171.144 253.398 171.191 253.351 171.191 253.293C171.191 253.235 171.144 253.188 171.086 253.188C171.028 253.188 170.98 253.235 170.98 253.293C170.98 253.351 171.028 253.398 171.086 253.398Z" stroke="#FDFDFD" stroke-width="0.25" stroke-miterlimit="10"/>
<path d="M173.692 253.586C173.75 253.586 173.797 253.539 173.797 253.482C173.797 253.424 173.75 253.377 173.692 253.377C173.634 253.377 173.587 253.424 173.587 253.482C173.587 253.539 173.634 253.586 173.692 253.586Z" stroke="#FDFDFD" stroke-width="0.25" stroke-miterlimit="10"/>
<path d="M170.434 250.637C170.492 250.637 170.539 250.59 170.539 250.532C170.539 250.475 170.492 250.428 170.434 250.428C170.376 250.428 170.329 250.475 170.329 250.532C170.329 250.59 170.376 250.637 170.434 250.637Z" stroke="#FDFDFD" stroke-width="0.25" stroke-miterlimit="10"/>
<path d="M161.671 248.651C161.73 248.651 161.777 248.604 161.777 248.546C161.777 248.488 161.73 248.441 161.671 248.441C161.613 248.441 161.566 248.488 161.566 248.546C161.566 248.604 161.613 248.651 161.671 248.651Z" stroke="#FDFDFD" stroke-width="0.25" stroke-miterlimit="10"/>
<path d="M165.012 254.004C165.07 254.004 165.117 253.957 165.117 253.899C165.117 253.842 165.07 253.795 165.012 253.795C164.954 253.795 164.907 253.842 164.907 253.899C164.907 253.957 164.954 254.004 165.012 254.004Z" stroke="#FDFDFD" stroke-width="0.25" stroke-miterlimit="10"/>
<path d="M167.135 249.131C167.193 249.131 167.24 249.084 167.24 249.026C167.24 248.969 167.193 248.922 167.135 248.922C167.077 248.922 167.03 248.969 167.03 249.026C167.03 249.084 167.077 249.131 167.135 249.131Z" stroke="#FDFDFD" stroke-width="0.25" stroke-miterlimit="10"/>
<path d="M165.664 251.871C165.722 251.871 165.769 251.824 165.769 251.767C165.769 251.709 165.722 251.662 165.664 251.662C165.606 251.662 165.559 251.709 165.559 251.767C165.559 251.824 165.606 251.871 165.664 251.871Z" stroke="#FDFDFD" stroke-width="0.25" stroke-miterlimit="10"/>
<path d="M163.352 250.846C163.41 250.846 163.457 250.799 163.457 250.741C163.457 250.684 163.41 250.637 163.352 250.637C163.294 250.637 163.247 250.684 163.247 250.741C163.247 250.799 163.294 250.846 163.352 250.846Z" stroke="#FDFDFD" stroke-width="0.25" stroke-miterlimit="10"/>
<path d="M167.829 247.625C167.887 247.625 167.934 247.578 167.934 247.521C167.934 247.463 167.887 247.416 167.829 247.416C167.771 247.416 167.724 247.463 167.724 247.521C167.724 247.578 167.771 247.625 167.829 247.625Z" stroke="#FDFDFD" stroke-width="0.25" stroke-miterlimit="10"/>
<path d="M169.762 248.211C169.82 248.211 169.867 248.164 169.867 248.107C169.867 248.049 169.82 248.002 169.762 248.002C169.704 248.002 169.657 248.049 169.657 248.107C169.657 248.164 169.704 248.211 169.762 248.211Z" stroke="#FDFDFD" stroke-width="0.25" stroke-miterlimit="10"/>
<path d="M166.546 245.639C166.605 245.639 166.652 245.592 166.652 245.534C166.652 245.477 166.605 245.43 166.546 245.43C166.488 245.43 166.441 245.477 166.441 245.534C166.441 245.592 166.488 245.639 166.546 245.639Z" stroke="#FDFDFD" stroke-width="0.25" stroke-miterlimit="10"/>
<path d="M164.361 249.131C164.419 249.131 164.466 249.084 164.466 249.026C164.466 248.969 164.419 248.922 164.361 248.922C164.303 248.922 164.256 248.969 164.256 249.026C164.256 249.084 164.303 249.131 164.361 249.131Z" stroke="#FDFDFD" stroke-width="0.25" stroke-miterlimit="10"/>
<path d="M169.153 245.848C169.211 245.848 169.258 245.801 169.258 245.743C169.258 245.685 169.211 245.639 169.153 245.639C169.095 245.639 169.048 245.685 169.048 245.743C169.048 245.801 169.095 245.848 169.153 245.848Z" stroke="#FDFDFD" stroke-width="0.25" stroke-miterlimit="10"/>
<path d="M159.969 244.844C159.969 244.844 165.58 244.697 169.32 250.971C169.719 251.745 169.656 253.251 168.48 251.996C165.033 247.751 160.957 247.102 160.221 247.625C159.99 248.713 160.158 248.525 161.377 250.072C162.554 251.494 166.336 258.521 165.727 258.877C165.18 259.713 163.562 258.396 163.562 258.396C163.562 258.396 163.667 260.717 161.797 258.898C159.927 257.078 155.178 250.219 153.812 251.494C152.761 252.477 156.018 257.664 155.43 258.333C154.841 259.002 154.526 259.274 152.761 256.095C150.996 252.916 150.113 249.57 148.012 250.595C145.91 251.62 144.166 250.971 144.166 250.971L143.389 245.534C143.389 245.534 155.178 242.815 159.969 244.844Z" fill="white"/>
<path d="M180.395 199.042C180.521 198.959 180.143 199.21 180.269 199.147C180.332 199.105 180.395 199.063 180.458 199.022C180.668 198.896 180.857 198.75 181.067 198.645C181.214 198.561 181.382 198.457 181.55 198.373C181.277 198.52 181.593 198.352 181.635 198.331C181.74 198.29 181.845 198.227 181.95 198.185C182.16 198.08 182.37 197.997 182.58 197.892C182.643 197.871 182.706 197.829 182.769 197.809C182.643 197.85 182.643 197.871 182.727 197.809C182.853 197.746 183 197.704 183.127 197.662C184.156 197.286 184.976 197.056 186.237 196.909C187.876 196.721 189.515 196.826 191.133 197.118C191.826 197.244 192.646 197.014 193.255 196.721C193.487 196.616 194.327 196.073 193.634 195.947C189.851 195.236 185.963 195.613 182.349 196.867C180.71 197.432 179.05 198.185 177.663 199.252C177.095 199.67 178.167 199.754 178.377 199.733C179.092 199.67 179.848 199.44 180.416 199.022L180.395 199.042Z" fill="#FFCF42"/>
<path d="M167.976 201.95C165.055 200.653 161.315 201.176 158.625 202.744C158.541 202.807 158.205 202.995 158.268 203.163C158.331 203.33 158.688 203.33 158.793 203.33C159.507 203.33 160.327 203.121 160.936 202.765C161.041 202.702 161.147 202.64 161.252 202.577C161.147 202.64 161.189 202.598 161.273 202.577C161.336 202.556 161.651 202.368 161.336 202.535C161.42 202.493 161.525 202.472 161.609 202.451C161.798 202.389 161.294 202.556 161.588 202.451C161.882 202.347 161.357 202.493 161.546 202.451C161.63 202.451 161.714 202.389 161.798 202.41C161.462 202.389 161.714 202.41 161.84 202.41C161.903 202.41 161.966 202.41 162.05 202.41C162.386 202.389 161.798 202.41 162.113 202.41C162.281 202.41 162.428 202.41 162.597 202.41C162.681 202.41 162.744 202.41 162.828 202.41C162.954 202.41 162.702 202.41 162.891 202.41C163.038 202.41 163.206 202.451 163.353 202.472C163.815 202.535 164.278 202.661 164.719 202.786C164.551 202.723 164.719 202.786 164.803 202.807C164.866 202.807 164.908 202.849 164.971 202.87C165.013 202.87 165.076 202.912 165.118 202.933C165.686 203.183 166.526 202.933 167.073 202.723C167.199 202.682 168.438 202.117 167.997 201.929L167.976 201.95Z" fill="#FFCF42"/>
<path d="M181.488 209.248C182.538 209.604 183.631 209.834 184.724 209.98C186.741 210.273 188.948 210.315 190.902 209.667C191.953 209.311 192.92 208.726 193.613 207.847C193.928 207.45 192.92 207.262 192.709 207.241C192.289 207.178 191.385 207.115 191.091 207.513C190.461 208.328 189.62 208.809 188.654 209.081C188.549 209.102 188.317 209.165 188.065 209.186C188.044 209.186 187.687 209.227 187.939 209.186C187.792 209.186 187.645 209.207 187.498 209.227C187.393 209.227 187.288 209.227 187.162 209.227C187.015 209.227 187.015 209.227 187.183 209.227C187.12 209.227 187.036 209.227 186.972 209.227C186.72 209.227 186.468 209.227 186.237 209.186C185.964 209.186 186.468 209.207 186.132 209.186C186.006 209.186 185.901 209.165 185.775 209.144C185.544 209.123 185.333 209.081 185.102 209.039C184.976 209.039 184.871 208.997 184.745 208.977C184.934 209.018 184.871 208.997 184.745 208.977C184.577 208.935 184.388 208.893 184.22 208.851C183.967 208.788 183.694 208.726 183.442 208.642C183.358 208.621 183.295 208.6 183.211 208.579C183.085 208.537 183.547 208.684 183.358 208.621C182.77 208.433 182.097 208.349 181.509 208.558C181.067 208.705 180.983 209.039 181.488 209.207V209.248Z" fill="#FFCF42"/>
<path d="M169.509 210.586C167.366 212.615 164.025 213.954 161.125 212.971C160.809 212.866 161.041 213.243 161.125 213.368C161.293 213.619 161.608 214.016 161.902 214.1C164.907 215.104 168.332 213.87 170.581 211.737C170.791 211.528 169.719 210.398 169.509 210.586Z" fill="#FFCF42"/>
<path d="M191.701 208.37C192.668 208.412 193.403 208.914 194.349 208.851C193.655 209.646 192.29 209.081 191.701 208.37Z" fill="#FFCF42"/>
<path d="M191.701 208.6C192.647 209.185 193.235 209.938 194.328 210.043C193.298 210.733 191.974 209.624 191.701 208.6Z" fill="#FFCF42"/>
<path d="M162.449 213.892C162.449 214.645 161.356 215.335 160.81 214.644C161.566 214.519 161.755 214.163 162.449 213.892Z" fill="#FFCF42"/>
<path d="M162.575 214.038C162.953 214.394 162.953 215.439 162.302 215.418C162.386 214.958 162.176 214.54 162.575 214.038Z" fill="#FFCF42"/>
<path d="M174.511 214.748C174.427 216.965 174.553 219.58 173.418 221.525C172.01 223.741 175.708 223.7 177.2 223.26C177.768 223.114 178.335 222.738 178.461 222.089C178.608 222.779 177.999 223.428 177.411 223.721C175.708 224.599 171.779 224.934 172.115 222.068C172.199 221.274 172.872 220.625 172.956 220.249C173.544 218.45 173.922 216.547 174.511 214.728V214.748Z" fill="#FFCF42"/>
<path d="M188.57 223.909C187.057 228.803 180.983 231.229 176.402 228.991C181.236 229.619 185.733 227.841 188.57 223.909Z" fill="#FFCF42"/>
<path d="M176.171 229.2C176.171 229.2 176.339 227.046 177.936 227.046C179.533 227.046 180.143 226.419 180.227 226.168C180.311 225.917 181.824 225.331 186.615 225.833C186.615 225.833 187.771 225.017 188.128 224.474C188.128 224.474 183.589 230.601 176.171 229.179V229.2Z" fill="#FFCF42"/>
<path d="M176.129 229.221C176.003 228.071 176.591 226.754 177.894 226.67C178.378 226.628 178.84 226.565 179.239 226.398C179.933 226.147 179.743 225.708 180.437 225.499C182.58 224.976 184.535 225.624 186.657 225.645L186.531 225.687C187.056 225.29 187.582 224.788 187.897 224.307L188.401 224.662C185.817 228.531 180.647 230.832 176.15 229.2L176.129 229.221ZM176.213 229.159C180.626 229.347 184.85 227.486 187.876 224.307L188.38 224.662C187.855 225.248 187.267 225.582 186.699 226.001C184.808 225.833 182.517 225.792 180.71 226.377C180.479 226.482 180.605 226.461 180.647 226.314C180.5 226.754 179.933 227.088 179.533 227.235C178.987 227.423 178.399 227.444 177.894 227.423C177.075 227.276 176.486 228.28 176.192 229.159H176.213Z" fill="#FFCF42"/>
<path d="M176.339 229.159C176.339 229.159 176.906 233.342 181.634 231.71C186.363 230.079 186.741 225.812 186.741 225.812" fill="#FFCF42"/>
<path d="M176.339 229.159C176.339 229.159 176.906 233.342 181.634 231.71C186.363 230.079 186.741 225.812 186.741 225.812" stroke="#FFCF42" stroke-width="0.5" stroke-miterlimit="10"/>
<path d="M157.658 203.33C157.658 203.33 150.324 194.044 154.526 188.293C158.729 182.541 168.27 172.377 191.427 169.826C191.427 169.826 193.823 161.125 200.884 162.527C200.884 162.527 206.852 159.097 209.289 162.569C209.289 162.569 214.459 161.69 213.303 167.086C213.303 167.086 221.415 167.358 218.01 176.602C218.01 176.602 220.322 183.629 214.081 185.657C214.081 185.657 224.104 211.612 203.342 225.227C203.342 225.227 207.924 217.614 207.734 216.108C207.734 216.108 215.888 210.963 214.732 206.153C212.799 200.715 208.323 199.607 207.524 207.052C207.041 211.507 204.897 212.134 204.897 212.134C204.897 212.134 203.511 213.055 203.595 210.064C203.679 207.073 205.066 195.445 188.212 184.57C188.212 184.57 186.993 183.859 183.694 186.766C180.395 189.673 173.502 197.348 163.1 194.588C163.1 194.588 158.372 192.329 158.351 194.107C158.351 195.759 159.129 201.928 157.721 203.351L157.658 203.33Z" fill="#FFECC5"/>
<path d="M193.992 170.955C199.14 172.294 204.541 174.824 208.365 178.526C209.899 180.011 211.181 181.768 211.917 183.797C212.127 184.382 213.64 183.964 213.43 183.399C210.992 176.623 203.322 172.859 196.892 170.684C196.24 170.453 195.568 170.244 194.895 170.077C194.349 169.931 193.109 170.746 193.992 170.976V170.955Z" fill="white"/>
<path d="M200.506 163.385C200.8 164.263 201.031 165.162 201.199 166.061C201.494 167.525 201.746 169.178 201.262 170.621C201.136 170.976 202.628 170.809 202.775 170.37C203.28 168.906 203.028 167.212 202.754 165.727C202.565 164.786 202.355 163.866 202.04 162.945C201.914 162.548 200.401 162.987 200.527 163.343L200.506 163.385Z" fill="white"/>
<path d="M208.407 162.694C207.209 163.342 206.159 164.367 205.507 165.559C205.234 166.082 205.045 166.667 204.961 167.253C204.919 167.63 205.36 167.818 205.675 167.797C206.033 167.755 206.453 167.546 206.516 167.169C206.516 167.044 206.558 166.939 206.579 166.814C206.579 166.793 206.621 166.647 206.6 166.709C206.6 166.772 206.6 166.709 206.6 166.688C206.6 166.647 206.6 166.626 206.621 166.584C206.684 166.354 206.789 166.145 206.894 165.935C206.936 165.852 206.999 165.747 207.041 165.664C207.041 165.643 207.062 165.622 207.083 165.601C207.125 165.559 207.146 165.496 207.188 165.454C207.314 165.287 207.44 165.12 207.567 164.953C207.63 164.869 207.693 164.806 207.756 164.722C207.777 164.681 207.819 164.66 207.84 164.618C207.861 164.597 207.987 164.472 207.903 164.555C207.819 164.639 207.945 164.513 207.966 164.492C207.987 164.472 208.029 164.43 208.05 164.409C208.113 164.346 208.197 164.283 208.26 164.221C208.47 164.053 208.701 163.886 208.932 163.719C208.975 163.698 209.143 163.593 208.996 163.677C208.848 163.76 208.996 163.677 209.017 163.677C209.038 163.677 209.08 163.635 209.101 163.635C209.374 163.489 209.668 163.133 209.458 162.819C209.248 162.506 208.722 162.527 208.407 162.673V162.694Z" fill="white"/>
<path d="M212.358 167.253C211.706 167.399 211.076 167.671 210.488 167.964C209.227 168.591 208.05 169.449 207.188 170.578C206.579 171.373 206.138 172.23 205.864 173.192C205.759 173.548 206.327 173.632 206.537 173.611C206.873 173.569 207.293 173.402 207.377 173.046C207.588 172.314 207.945 171.624 208.386 170.997C208.533 170.787 208.785 170.495 208.996 170.285C209.101 170.16 209.227 170.055 209.353 169.951C209.416 169.909 209.458 169.846 209.521 169.804C209.437 169.867 209.626 169.721 209.647 169.7C209.899 169.512 210.151 169.323 210.403 169.177C210.53 169.093 210.635 169.031 210.761 168.968C210.845 168.926 210.719 168.989 210.719 168.989C210.74 168.989 210.782 168.947 210.803 168.947C210.866 168.905 210.929 168.884 211.013 168.842C211.223 168.738 211.454 168.633 211.664 168.55C211.748 168.508 211.832 168.487 211.917 168.445C211.959 168.445 212.001 168.403 212.043 168.403C212.211 168.34 211.896 168.445 212.001 168.403C212.19 168.34 212.379 168.278 212.568 168.236C212.841 168.173 213.303 167.922 213.198 167.567C213.093 167.211 212.568 167.253 212.316 167.316L212.358 167.253Z" fill="white"/>
<path d="M216.939 176.183C216.75 176.225 216.56 176.288 216.371 176.33C216.161 176.371 215.951 176.413 215.762 176.476C215.909 176.455 215.594 176.518 215.762 176.476C215.699 176.476 215.636 176.497 215.552 176.518C215.426 176.539 215.279 176.56 215.152 176.581C214.879 176.622 214.585 176.664 214.312 176.706C214.186 176.706 214.039 176.748 213.913 176.748C213.871 176.748 213.829 176.748 213.787 176.748C213.85 176.748 213.871 176.748 213.808 176.748C213.723 176.748 213.66 176.748 213.576 176.748C213.45 176.748 213.324 176.748 213.198 176.748C213.135 176.748 213.072 176.748 213.009 176.748C212.988 176.748 212.736 176.748 212.883 176.748C212.778 176.748 212.652 176.748 212.547 176.706C212.505 176.706 212.442 176.706 212.4 176.685C212.358 176.685 212.337 176.685 212.295 176.664C212.358 176.664 212.358 176.664 212.295 176.664C211.937 176.56 211.538 176.664 211.223 176.832C211.076 176.915 210.718 177.25 211.076 177.354C212.273 177.689 213.618 177.522 214.816 177.313C215.594 177.187 216.392 177.02 217.149 176.811C217.338 176.748 217.884 176.581 217.821 176.288C217.758 175.995 217.128 176.121 216.981 176.162L216.939 176.183Z" fill="white"/>
<path d="M159.864 191.911C163.1 193.458 167.261 194.337 170.749 193.228C173.46 192.371 175.835 190.217 178.041 188.502C180.08 186.912 182.013 185.218 184.073 183.65C184.724 183.148 183.211 183.252 182.875 183.503C181.215 184.758 179.639 186.118 178.02 187.435C176.928 188.293 175.835 189.15 174.721 189.987C173.607 190.823 172.347 191.848 171.044 192.454C168.06 193.814 163.941 192.622 161.125 191.283C160.747 191.095 159.339 191.681 159.885 191.953L159.864 191.911Z" fill="white"/>
<path d="M156.039 193.291C155.745 191.429 156.691 189.296 157.868 187.853C158.624 186.933 159.528 186.138 160.536 185.511C160.747 185.385 160.999 185.134 160.684 184.967C160.389 184.82 159.864 184.967 159.612 185.113C156.859 186.891 154.526 189.652 154.484 193.04C154.484 193.27 154.484 193.479 154.526 193.709C154.61 194.169 156.123 193.834 156.039 193.312V193.291Z" fill="white"/>
<path d="M191.638 184.779C193.76 186.473 195.715 188.418 197.501 190.446C200.443 193.772 203.49 197.913 203.721 202.514C203.721 202.786 205.276 202.535 205.234 202.116C204.982 197.536 201.977 193.437 199.056 190.091C197.228 187.999 195.231 185.992 193.046 184.256C192.71 184.005 191.386 184.59 191.617 184.779H191.638Z" fill="white"/>
<path d="M208.785 184.319C209.815 187.666 210.446 191.388 210.109 194.881C210.109 195.027 211.601 194.902 211.622 194.484C211.959 190.991 211.328 187.268 210.299 183.922C210.193 183.608 208.68 184.047 208.785 184.319Z" fill="white"/>
<path d="M141.183 241.936C143.609 241.936 145.575 239.979 145.575 237.565C145.575 235.151 143.609 233.194 141.183 233.194C138.757 233.194 136.791 235.151 136.791 237.565C136.791 239.979 138.757 241.936 141.183 241.936Z" fill="white" stroke="white" stroke-width="0.5" stroke-miterlimit="10"/>
<path d="M149.378 229.41C153.556 229.41 156.943 226.039 156.943 221.881C156.943 217.722 153.556 214.352 149.378 214.352C145.2 214.352 141.812 217.722 141.812 221.881C141.812 226.039 145.2 229.41 149.378 229.41Z" fill="white" stroke="white" stroke-width="0.5" stroke-miterlimit="10"/>
<path d="M158.918 234.868C160.474 234.868 161.734 233.613 161.734 232.065C161.734 230.517 160.474 229.263 158.918 229.263C157.363 229.263 156.103 230.517 156.103 232.065C156.103 233.613 157.363 234.868 158.918 234.868Z" fill="white" stroke="white" stroke-width="0.5" stroke-miterlimit="10"/>
<path d="M178.483 252.812C180.908 252.812 182.875 250.855 182.875 248.441C182.875 246.027 180.908 244.07 178.483 244.07C176.057 244.07 174.091 246.027 174.091 248.441C174.091 250.855 176.057 252.812 178.483 252.812Z" fill="#FFECC5"/>
<path d="M138.073 249.8C139.338 249.8 140.363 248.78 140.363 247.521C140.363 246.262 139.338 245.241 138.073 245.241C136.808 245.241 135.782 246.262 135.782 247.521C135.782 248.78 136.808 249.8 138.073 249.8Z" fill="#FFECC5"/>
<path d="M174.616 265.757C176.31 265.757 177.684 264.39 177.684 262.704C177.684 261.017 176.31 259.65 174.616 259.65C172.921 259.65 171.548 261.017 171.548 262.704C171.548 264.39 172.921 265.757 174.616 265.757Z" fill="#FFECC5"/>
<path d="M138.787 263.394C140.76 263.394 142.36 261.802 142.36 259.839C142.36 257.875 140.76 256.283 138.787 256.283C136.814 256.283 135.215 257.875 135.215 259.839C135.215 261.802 136.814 263.394 138.787 263.394Z" fill="#FFCF44"/>
<path d="M183.568 250.219C184.682 250.219 185.586 249.32 185.586 248.211C185.586 247.102 184.682 246.203 183.568 246.203C182.454 246.203 181.551 247.102 181.551 248.211C181.551 249.32 182.454 250.219 183.568 250.219Z" fill="#FFCF44"/>
</g>
<defs>
<clipPath id="clip0_227_206">
<rect width="59.662" height="61.1725" fill="white" transform="translate(99.6611 89.5068) rotate(-179.678)"/>
</clipPath>
<clipPath id="clip1_227_206">
<rect width="46.9439" height="46.9439" fill="white" transform="translate(102.615 183.379) rotate(-134.009)"/>
</clipPath>
<clipPath id="clip2_227_206">
<rect width="76" height="73" fill="white" transform="translate(173 48)"/>
</clipPath>
<clipPath id="clip3_227_206">
<rect width="167" height="119" fill="white" transform="translate(57 161)"/>
</clipPath>
</defs>
</svg>
